<?xml version="1.0" encoding="utf-8"?>
<!-- Generator: Adobe Illustrator 16.0.0, SVG Export Plug-In . SVG Version: 6.00 Build 0)  -->
<!DOCTYPE svg PUBLIC "-//W3C//DTD SVG 1.1//EN" "http://www.w3.org/Graphics/SVG/1.1/DTD/svg11.dtd">
<svg version="1.1" id="Ebene_1" xmlns="http://www.w3.org/2000/svg" xmlns:xlink="http://www.w3.org/1999/xlink" x="0px" y="0px"
	 width="447.632px" height="525.875px" viewBox="76.742 129.509 447.632 525.875"
	 enable-background="new 76.742 129.509 447.632 525.875" xml:space="preserve">
<path fill="#73BAE8" d="M179.466,197.815l48.067-48.963c-0.435-0.426-0.758-0.956-0.963-1.542l-52.809,18.381
	c0.144,0.413,0.238,0.849,0.238,1.31c0,1.943-1.387,3.56-3.224,3.921l5.114,25.823c0.251-0.049,0.51-0.078,0.776-0.078
	C177.758,196.667,178.745,197.106,179.466,197.815z"/>
<path fill="#36A9E1" d="M230.333,150c-1.091,0-2.078-0.439-2.8-1.148l-48.067,48.963c0.594,0.583,0.996,1.351,1.135,2.21
	l11.809-1.926l47.548-45.871l-6.272-4.058C232.974,149.269,231.741,150,230.333,150z"/>
<path fill="#9DCBEF" d="M173.718,203.349c-0.647-0.71-1.051-1.646-1.051-2.682c0-1.943,1.386-3.56,3.224-3.922l-5.114-25.823
	c-0.251,0.049-0.51,0.078-0.776,0.078c-0.82,0-1.581-0.249-2.215-0.671L140.05,212h24.156L173.718,203.349z"/>
<path fill="#36A9E1" d="M166.56,169.01L93,212h47.05l27.735-41.671C167.279,169.992,166.868,169.536,166.56,169.01z"/>
<linearGradient id="SVGID_1_" gradientUnits="userSpaceOnUse" x1="169.8081" y1="693.6841" x2="226.4058" y2="693.6841" gradientTransform="matrix(1 0 0 -1 0.165 841.5293)">
	<stop  offset="0" style="stop-color:#36A9E1"/>
	<stop  offset="1" style="stop-color:#36A9E1"/>
</linearGradient>
<path fill="url(#SVGID_1_)" d="M170,163c1.748,0,3.218,1.127,3.762,2.69l52.809-18.381c-0.144-0.412-0.237-0.848-0.237-1.309
	c0-0.408,0.079-0.793,0.192-1.165L178,130l-7.224,33.409C170.986,163.375,169.781,163,170,163z"/>
<path fill="#9DCBEF" d="M166,167c0-1.991,2.873-3.284,4.776-3.591L178,130l-85,82l73.56-42.99C166.213,168.418,166,167.737,166,167z
	"/>
<path fill="#36A9E1" d="M230.333,142c1.482,0,2.761,0.815,3.452,2.012L263,130h-85l48.526,14.836
	C227.027,143.199,228.532,142,230.333,142z"/>
<g enable-background="new    ">
	<path fill="#36A9E1" d="M84.36,610.019l6.865-0.047c0,0.063-0.016,0.17-0.046,0.324c-0.093,1.299-0.139,2.273-0.139,2.923
		c0,5.041,1.245,8.837,3.734,11.388c2.489,2.552,6.176,3.827,11.063,3.827c5.474,0,9.362-1.384,11.667-4.151
		c2.303-2.768,3.456-7.538,3.456-14.311v-45.598h6.819v44.299c0,5.474-0.286,9.439-0.858,11.898c-0.572,2.458-1.554,4.6-2.945,6.424
		c-1.887,2.506-4.314,4.431-7.283,5.775c-2.969,1.346-6.309,2.018-10.02,2.018c-7.36,0-12.935-1.87-16.722-5.612
		c-3.789-3.741-5.683-9.246-5.683-16.514c0-0.742,0.007-1.291,0.023-1.646C84.306,610.661,84.329,610.328,84.36,610.019z"/>
	<path fill="#36A9E1" d="M140.024,607.792c0-8.041,2.474-14.543,7.422-19.506c4.947-4.964,11.441-7.445,19.482-7.445
		c8.009,0,14.503,2.489,19.482,7.469c4.979,4.979,7.468,11.473,7.468,19.482c0,8.04-2.49,14.55-7.468,19.528
		c-4.979,4.979-11.474,7.468-19.482,7.468c-8.041,0-14.535-2.488-19.482-7.468C142.498,622.342,140.024,615.833,140.024,607.792z
		 M146.75,607.792c0,6.277,1.824,11.271,5.474,14.982c3.648,3.711,8.55,5.566,14.705,5.566c6.123,0,11.009-1.862,14.658-5.59
		c3.648-3.726,5.474-8.713,5.474-14.959c0-6.247-1.825-11.227-5.474-14.938c-3.649-3.711-8.535-5.566-14.658-5.566
		c-6.154,0-11.056,1.855-14.705,5.566C148.575,596.566,146.75,601.545,146.75,607.792z"/>
	<path fill="#36A9E1" d="M204.641,632.98v-50.33h6.355v9.277c2.442-3.401,5.442-5.976,8.999-7.723
		c3.556-1.747,7.576-2.621,12.061-2.621c4.854,0,8.813,0.851,11.875,2.551c3.062,1.701,5.318,4.299,6.772,7.793
		c2.442-3.401,5.451-5.976,9.022-7.723c3.572-1.747,7.584-2.621,12.038-2.621c6.648,0,11.542,1.523,14.681,4.569
		s4.708,7.801,4.708,14.264v32.563h-6.633v-28.296c0-6.432-1.044-10.893-3.131-13.383c-2.088-2.488-5.667-3.733-10.739-3.733
		c-5.752,0-10.483,1.562-14.194,4.685c-3.711,3.124-5.566,7.144-5.566,12.061v28.667h-5.984v-28.296
		c0-6.401-1.052-10.854-3.154-13.359c-2.104-2.505-5.706-3.757-10.808-3.757c-5.752,0-10.483,1.562-14.194,4.685
		c-3.711,3.124-5.566,7.144-5.566,12.061v28.667H204.641z"/>
	<path fill="#36A9E1" d="M311.609,632.98h-6.633v-50.33h6.633V591c1.453-3.185,3.518-5.674,6.193-7.468
		c2.674-1.793,5.65-2.69,8.929-2.69c1.082,0,2.173,0.116,3.271,0.348c1.098,0.232,2.219,0.58,3.363,1.044v6.401
		c-1.113-0.34-2.15-0.587-3.108-0.742c-0.959-0.154-1.887-0.232-2.783-0.232c-3.928,0-7.206,1.061-9.834,3.178
		c-2.629,2.119-4.639,5.312-6.03,9.579V632.98z"/>
	<path fill="#36A9E1" d="M391.58,626.625l0.047,5.706c-1.021,0.31-1.988,0.541-2.9,0.696c-0.912,0.154-1.785,0.231-2.62,0.231
		c-2.227,0-3.851-0.595-4.87-1.786c-1.021-1.189-1.655-3.254-1.902-6.192c-2.753,3.124-5.83,5.396-9.23,6.819
		c-3.402,1.422-7.516,2.133-12.34,2.133c-6.092,0-10.793-1.313-14.102-3.942c-3.309-2.628-4.963-6.354-4.963-11.179
		c0-2.227,0.441-4.237,1.322-6.031c0.881-1.793,2.203-3.354,3.966-4.685c1.392-1.021,3.277-1.871,5.659-2.552
		c2.381-0.68,6.447-1.422,12.199-2.227c1.268-0.154,3-0.371,5.195-0.648c8.195-0.99,12.293-3.371,12.293-7.145
		c0-2.752-1.184-4.847-3.549-6.285c-2.365-1.438-5.838-2.156-10.414-2.156c-5.752,0-10.119,0.974-13.104,2.922
		s-4.601,4.871-4.848,8.768h-6.541c0.371-5.907,2.529-10.329,6.471-13.268c3.943-2.938,9.672-4.406,17.188-4.406
		c4.793,0,8.666,0.479,11.619,1.438c2.953,0.959,5.28,2.506,6.981,4.639c1.021,1.299,1.755,2.792,2.204,4.477
		c0.447,1.687,0.672,4.275,0.672,7.77v2.783v19.529c0,2.227,0.201,3.626,0.604,4.198c0.4,0.572,1.113,0.858,2.133,0.858
		c0.465,0,0.936-0.039,1.416-0.116C390.644,626.896,391.116,626.78,391.58,626.625z M379.333,605.705
		c-1.206,0.681-3.023,1.307-5.451,1.879s-6.394,1.275-11.897,2.11c-7.268,1.145-11.86,2.374-13.776,3.688
		c-1.918,1.315-2.877,3.286-2.877,5.915c0,2.721,1.176,4.894,3.525,6.517c2.35,1.624,5.521,2.436,9.51,2.436
		c6.216,0,11.264-1.453,15.145-4.36c3.881-2.906,5.822-6.68,5.822-11.318v-0.789V605.705z"/>
	<path fill="#36A9E1" d="M401.877,651.025V582.65h6.634v8.814c2.535-3.434,5.41-5.953,8.627-7.562
		c3.217-1.607,6.988-2.412,11.318-2.412c8.01,0,14.465,2.42,19.367,7.26c4.9,4.84,7.352,11.187,7.352,19.042
		c0,7.854-2.475,14.225-7.422,19.111c-4.947,4.886-11.381,7.328-19.297,7.328c-4.268,0-8.01-0.804-11.225-2.412
		c-3.217-1.607-6.123-4.097-8.721-7.468v26.673H401.877z M408.511,607.792c0,6.153,1.793,11.048,5.381,14.681
		c3.586,3.635,8.41,5.45,14.473,5.45c6.061,0,10.9-1.824,14.519-5.473c3.618-3.649,5.427-8.535,5.427-14.658
		c0-6.093-1.809-10.971-5.427-14.636c-3.618-3.664-8.458-5.497-14.519-5.497c-6.063,0-10.887,1.817-14.473,5.451
		C410.304,596.745,408.511,601.638,408.511,607.792z"/>
	<path fill="#36A9E1" d="M461.669,617.116h6.68c0.465,3.742,2.157,6.563,5.08,8.466c2.922,1.901,7.058,2.853,12.408,2.853
		c5.659,0,9.965-0.796,12.919-2.389c2.952-1.593,4.429-3.904,4.429-6.935c0-2.135-0.734-3.796-2.202-4.987
		c-1.47-1.189-3.858-2.033-7.167-2.528l-14.658-2.18c-5.722-0.835-9.842-2.335-12.362-4.5c-2.521-2.164-3.78-5.257-3.78-9.277
		c0-4.545,1.994-8.147,5.984-10.808c3.988-2.659,9.463-3.989,16.42-3.989c7.02,0,12.532,1.446,16.537,4.337
		c4.004,2.893,6.053,6.889,6.146,11.991h-6.588c-0.494-3.433-2.164-5.999-5.009-7.7c-2.846-1.7-6.851-2.552-12.015-2.552
		c-4.607,0-8.195,0.742-10.762,2.227s-3.85,3.525-3.85,6.123c0,2.165,0.818,3.827,2.459,4.987c1.639,1.159,4.668,2.063,9.092,2.714
		l12.941,1.994c5.566,0.835,9.57,2.313,12.014,4.43c2.443,2.119,3.664,5.142,3.664,9.068c0,5.319-2.117,9.371-6.354,12.154
		c-4.238,2.783-10.422,4.174-18.555,4.174c-7.113,0-12.703-1.53-16.77-4.592S462.072,622.775,461.669,617.116z"/>
</g>
<path fill="#36A9E1" d="M179.644,203.315l3.829,3.405l8.938-8.622l-11.809,1.926c0.034,0.21,0.065,0.422,0.065,0.642
	C180.667,201.688,180.272,202.608,179.644,203.315z"/>
<path fill="#36A9E1" d="M175.737,204.547c-0.793-0.189-1.489-0.614-2.02-1.198L164.206,212h9.746L175.737,204.547z"/>
<path fill="#36A9E1" d="M178.444,204.232l2.472,4.955l2.557-2.467l-3.829-3.405C179.307,203.693,178.902,204.003,178.444,204.232z"
	/>
<path fill="#36A9E1" d="M180.916,209.187l-2.472-4.955c-0.538,0.269-1.136,0.434-1.778,0.434c-0.321,0-0.63-0.048-0.929-0.12
	L173.952,212H178L180.916,209.187z"/>
<path fill="#36A9E1" d="M234.333,146c0,0.801-0.241,1.543-0.647,2.169l6.272,4.058L263,130l-29.215,14.013
	C234.125,144.601,234.333,145.273,234.333,146z"/>
<path fill="#36A9E1" d="M405.333,182.667L405.333,182.667h-13.739l3.46,3.337l10.395-2.429
	C405.378,183.283,405.333,182.981,405.333,182.667z"/>
<path fill="#36A9E1" d="M409.333,186.667c-0.451,0-0.879-0.091-1.283-0.229l-4.045,8.203L422,212h17.426l19.1-14.885
	c-0.529-0.678-0.857-1.521-0.857-2.448c0-0.308,0.041-0.604,0.107-0.893l-44.549-10.215
	C412.819,185.337,411.235,186.667,409.333,186.667z"/>
<path fill="#36A9E1" d="M408.05,186.438c-1.295-0.441-2.289-1.514-2.604-2.862l-10.395,2.429l8.953,8.636L408.05,186.438z"/>
<path fill="#36A9E1" d="M408.332,146.203c-0.207-0.311-0.354-0.659-0.469-1.023l-41.716,12.938l9.812,9.465L408.332,146.203z"/>
<path fill="#36A9E1" d="M415.666,144c0,1.114-0.457,2.12-1.191,2.845l44.385,44.976c0.723-0.713,1.713-1.155,2.809-1.155
	c2.209,0,4,1.791,4,4c0,0.504-0.104,0.981-0.273,1.425L507,212l-85-82l-7.965,10.792C415.02,141.521,415.666,142.681,415.666,144z"
	/>
<path fill="#73BAE8" d="M462.134,198.619L463.718,212H507l-41.607-15.908C464.871,197.454,463.63,198.443,462.134,198.619z"/>
<path fill="#36A9E1" d="M461.666,198.667c-0.1,0-0.191-0.022-0.289-0.029L460.4,212h3.316l-1.584-13.381
	C461.98,198.638,461.826,198.667,461.666,198.667z"/>
<path fill="#9DCBEF" d="M411.666,140c0.891,0,1.703,0.3,2.369,0.792L422,130h-85l70.74,13.264
	C408.087,141.407,409.708,140,411.666,140z"/>
<path fill="#36A9E1" d="M458.525,197.115L439.425,212H460.4l0.977-13.363C460.216,198.553,459.199,197.98,458.525,197.115z"/>
<path fill="#36A9E1" d="M407.666,144c0-0.252,0.029-0.497,0.074-0.737L337,130l29.147,28.118l41.716-12.938
	C407.748,144.805,407.666,144.414,407.666,144z"/>
<path fill="#9DCBEF" d="M405.333,182.667c0-2.209,1.791-4,4-4c0.082,0,0.16,0.019,0.24,0.024l1.852-30.716
	c-1.291-0.078-2.42-0.755-3.094-1.773l-32.373,21.38l15.635,15.084L405.333,182.667L405.333,182.667z"/>
<path fill="#73BAE8" d="M411.425,147.976l-1.852,30.716c2.096,0.126,3.76,1.849,3.76,3.976c0,0.308-0.041,0.604-0.107,0.892
	l44.549,10.215c0.172-0.754,0.553-1.428,1.084-1.953l-44.385-44.976c-0.723,0.712-1.713,1.154-2.809,1.154
	C411.583,148,411.507,147.98,411.425,147.976z"/>
<path fill="#9DCBEF" d="M287,178.667c1.795,0,3.297,1.191,3.803,2.82l31.834-9.874L300.5,150l-25.502,24.9l8.65,5.597
	C284.36,179.398,285.592,178.667,287,178.667z"/>
<path fill="#36A9E1" d="M283.064,183.309c-0.034-0.21-0.064-0.422-0.064-0.642c0-0.801,0.241-1.544,0.647-2.17l-8.65-5.597
	l-11.958,11.676L283.064,183.309z"/>
<path fill="#73BAE8" d="M290.453,184.654l28.427,16.359c0.69-1.198,1.971-2.013,3.453-2.013c1.395,0,2.619,0.715,3.334,1.797
	l16.021-10.581l-7.732-7.549H291l0,0C291,183.395,290.792,184.066,290.453,184.654z"/>
<path fill="#9DCBEF" d="M319.397,205.699c-0.655-0.712-1.063-1.655-1.063-2.699c0-0.727,0.209-1.399,0.547-1.987l-28.427-16.359
	c-0.691,1.198-1.97,2.013-3.453,2.013c-0.54,0-1.053-0.11-1.523-0.304L274.921,212h37.624L319.397,205.699z"/>
<path fill="#36A9E1" d="M324.636,206.261c-0.651,0.461-1.443,0.738-2.303,0.738c-1.166,0-2.205-0.506-2.937-1.301L312.544,212
	h16.145L324.636,206.261z"/>
<path fill="#36A9E1" d="M274.921,212l10.556-25.637c-1.261-0.521-2.187-1.668-2.412-3.054l-20.025,3.267L237,212H274.921z"/>
<path fill="#36A9E1" d="M291,182.667h42.957l-11.319-11.053l-31.834,9.874C290.919,181.863,291,182.253,291,182.667z"/>
<path fill="#36A9E1" d="M326.333,203c0,1.35-0.674,2.537-1.697,3.261l4.053,5.739H364l-15.483-15.119l-22.296,5.211
	C326.289,202.385,326.333,202.686,326.333,203z"/>
<path fill="#36A9E1" d="M348.516,196.881l-6.826-6.665l-16.021,10.581c0.258,0.389,0.442,0.827,0.552,1.294L348.516,196.881z"/>
<path fill="#36A9E1" d="M335.384,356.846l-64.102,8.311c0.022,0.169,0.052,0.337,0.052,0.512c0,0.816-0.247,1.573-0.667,2.206
	l52.254,34.587c0.717-1.08,1.94-1.793,3.334-1.793c0.361,0,0.707,0.063,1.039,0.154l10.998-40.642
	C336.753,359.763,335.593,358.46,335.384,356.846z"/>
<path fill="#36A9E1" d="M343.319,356.196c0.001,0.047,0.015,0.091,0.015,0.138c0,1.187-0.526,2.239-1.347,2.971l14.886,16.66
	l7.125-20.481L343.319,356.196z"/>
<path fill="#36A9E1" d="M274.842,426.05l-7.018-56.432c-0.163,0.02-0.323,0.049-0.491,0.049c-1.642,0-3.05-0.991-3.666-2.407
	l-20.096,8.733l16.763,47.706l11.311,4.752C272.19,427.158,273.399,426.23,274.842,426.05z"/>
<path fill="#73BAE8" d="M322.921,402.46l-52.254-34.587c-0.63,0.95-1.657,1.598-2.842,1.745l7.018,56.432
	c0.163-0.021,0.323-0.051,0.491-0.051c1.568,0,2.912,0.912,3.567,2.227l43.787-21.785c-0.269-0.537-0.433-1.135-0.433-1.774
	C322.255,403.85,322.501,403.093,322.921,402.46z"/>
<path fill="#9DCBEF" d="M343.082,354.98c0.139,0.383,0.224,0.79,0.237,1.216l20.679-0.713l3.207-9.217L343.082,354.98z"/>
<path fill="#36A9E1" d="M368,263.667c0.637,0,1.229,0.162,1.764,0.426L375.725,252h-18.788l8.76,12.405
	C366.349,263.944,367.141,263.667,368,263.667z"/>
<path fill="#36A9E1" d="M368,271.667c-0.437,0-0.849-0.087-1.242-0.216l-26.579,80.977c1.354,0.292,2.44,1.271,2.903,2.554
	l24.123-8.713l17.236-49.545l-14.48-25.588C369.38,271.463,368.716,271.667,368,271.667z"/>
<path fill="#36A9E1" d="M369.96,271.133l14.48,25.588l7.075-20.336l-19.778-7.332C371.41,269.941,370.775,270.671,369.96,271.133z"
	/>
<path fill="#73BAE8" d="M364.05,267.168c0.144-1.14,0.753-2.13,1.646-2.763L356.937,252H269.04l-14.104,12.968
	c0.651,0.708,1.058,1.644,1.063,2.681L364.05,267.168z"/>
<path fill="#9DCBEF" d="M236.959,313.22l71.082-7.196c-0.014-0.135-0.041-0.265-0.041-0.401c0-0.787,0.235-1.515,0.627-2.134
	L255.373,269.8c-0.709,1.119-1.95,1.866-3.373,1.866c-0.542,0-1.057-0.11-1.527-0.305l-15.945,38.565
	C235.858,310.478,236.809,311.729,236.959,313.22z"/>
<path fill="#9DCBEF" d="M364.689,269.911l-49.379,33.467c0.436,0.64,0.689,1.412,0.689,2.244c0,1.506-0.842,2.801-2.072,3.483
	l24.064,43.475c0.422-0.15,0.867-0.247,1.34-0.247c0.291,0,0.572,0.035,0.846,0.093l26.58-80.977
	C365.91,271.171,365.181,270.634,364.689,269.911z"/>
<path fill="#36A9E1" d="M312,301.622c1.377,0,2.592,0.696,3.312,1.756l49.379-33.467c-0.435-0.64-0.688-1.412-0.688-2.244
	c0-0.171,0.028-0.333,0.051-0.499l-108.053,0.481c0,0.006,0.002,0.012,0.002,0.018c0,0.787-0.235,1.515-0.627,2.133l53.254,33.688
	C309.335,302.37,310.578,301.622,312,301.622z"/>
<path fill="#73BAE8" d="M265.133,362.331l-29.932-45.374c-0.631,0.417-1.387,0.664-2.201,0.664c-1.58,0-2.933-0.924-3.583-2.254
	l-5.618,4.359l16.015,45.576l23.524,0.312C263.357,364.241,264.064,363.038,265.133,362.331z"/>
<path fill="#36A9E1" d="M308.041,306.023l-71.082,7.196c0.014,0.135,0.041,0.265,0.041,0.401c0,1.395-0.716,2.62-1.799,3.336
	l29.932,45.374c0.632-0.417,1.387-0.664,2.201-0.664c0.895,0,1.713,0.304,2.379,0.801l39.908-53.646
	C308.744,308.168,308.156,307.169,308.041,306.023z"/>
<path fill="#73BAE8" d="M337.994,352.581l-24.064-43.475c-0.574,0.318-1.227,0.516-1.93,0.516c-0.895,0-1.713-0.304-2.379-0.801
	l-39.908,53.646c0.848,0.632,1.427,1.587,1.569,2.688l64.103-8.311c-0.021-0.169-0.052-0.336-0.052-0.512
	C335.333,354.597,336.447,353.133,337.994,352.581z"/>
<path fill="#36A9E1" d="M254.936,264.968L269.04,252h-10.589l-4.929,11.971C254.066,264.195,254.543,264.542,254.936,264.968z"/>
<path fill="#9DCBEF" d="M369.763,264.093c0.542,0.268,1.01,0.653,1.379,1.125L388.103,252h-12.378L369.763,264.093z"/>
<path fill="#36A9E1" d="M372,267.667h22.551L400,252h-11.896l-16.961,13.218C371.671,265.896,372,266.739,372,267.667z"/>
<path fill="#9DCBEF" d="M252,263.667c0.54,0,1.052,0.11,1.522,0.304L258.451,252h-24.066l14.638,13.019
	C249.755,264.196,250.812,263.667,252,263.667z"/>
<path fill="#9DCBEF" d="M231.222,310.056L202.268,252H200l20.328,57.848l8.769,2.918
	C229.357,311.571,230.156,310.589,231.222,310.056z"/>
<path fill="#9DCBEF" d="M371.738,269.053l19.778,7.332l3.032-8.718H372C372,268.156,371.899,268.62,371.738,269.053z"/>
<path fill="#36A9E1" d="M229.417,315.367c-0.259-0.529-0.417-1.117-0.417-1.746c0-0.294,0.036-0.58,0.097-0.855l-8.769-2.918
	l3.472,9.879L229.417,315.367z"/>
<path fill="#36A9E1" d="M263.339,365.614l-23.524-0.312l3.757,10.69l20.096-8.733c-0.213-0.489-0.334-1.025-0.334-1.593
	C263.333,365.649,263.339,365.632,263.339,365.614z"/>
<path fill="#36A9E1" d="M231.222,310.056c0.538-0.269,1.136-0.434,1.778-0.434c0.542,0,1.057,0.11,1.527,0.305l15.945-38.565
	c-1.451-0.6-2.473-2.027-2.473-3.694c0-1.021,0.394-1.941,1.022-2.648L234.384,252h-32.117L231.222,310.056z"/>
<path fill="#9DCBEF" d="M301.666,492.333c0-0.668,0.181-1.289,0.469-1.842l-22.44-11.701L300.5,538l4.719-41.711
	C303.223,496.064,301.666,494.39,301.666,492.333z"/>
<path fill="#73BAE8" d="M341.987,359.305c-0.707,0.632-1.631,1.028-2.653,1.028c-0.362,0-0.707-0.063-1.041-0.154l-10.998,40.642
	c1.701,0.46,2.961,1.999,2.961,3.846c0,0.324-0.049,0.635-0.123,0.937l15.154,3.661l11.586-33.299L341.987,359.305z"/>
<path fill="#36A9E1" d="M309.666,492.333c0,2.209-1.791,4-4,4c-0.152,0-0.299-0.029-0.447-0.045L300.5,538l19.754-56.777
	l-11.418,8.697C309.35,490.591,309.666,491.421,309.666,492.333z"/>
<path fill="#36A9E1" d="M330.132,405.603c-0.422,1.756-1.992,3.063-3.877,3.063c-0.315,0-0.618-0.045-0.914-0.114l-18.764,79.897
	c0.918,0.215,1.705,0.746,2.258,1.471l11.418-8.697l25.033-71.958L330.132,405.603z"/>
<path fill="#36A9E1" d="M271.646,428.451l-11.311-4.752l3.12,8.879l7.973-1.73c-0.059-0.271-0.094-0.557-0.094-0.848
	C271.333,429.451,271.445,428.927,271.646,428.451z"/>
<path fill="#9DCBEF" d="M322.688,406.441l-43.787,21.785c0.268,0.535,0.433,1.135,0.433,1.773c0,1.582-0.925,2.936-2.256,3.584
	l26.843,55.166c0.529-0.258,1.117-0.416,1.744-0.416c0.315,0,0.619,0.045,0.912,0.115l18.764-79.897
	C324.173,408.278,323.21,407.491,322.688,406.441z"/>
<path fill="#36A9E1" d="M303.921,488.75l-26.843-55.166c-0.529,0.258-1.116,0.416-1.744,0.416c-1.917,0-3.517-1.352-3.906-3.152
	l-7.973,1.73l16.239,46.213l22.441,11.701C302.531,489.736,303.153,489.125,303.921,488.75z"/>
<path fill="#36A9E1" d="M169.48,361.891l19.875-15.427l-17.508-52.747l-12.402-4.126c-0.473,1.418-1.706,2.475-3.225,2.687
	l9.56,68.112c0.183-0.024,0.364-0.056,0.554-0.056C167.618,360.333,168.748,360.95,169.48,361.891z"/>
<path fill="#73BAE8" d="M199.666,395.074l5.091-2.212l-9.342-28.145l-25.086-0.332c-0.019,1.449-0.813,2.699-1.981,3.385
	l24.892,26.012c0.719-0.688,1.688-1.115,2.761-1.115C197.642,392.667,199.05,393.658,199.666,395.074z"/>
<path fill="#73BAE8" d="M103,263.667c0.82,0,1.581,0.249,2.215,0.671L113.427,252H77l22.586,13.61
	C100.286,264.45,101.546,263.667,103,263.667z"/>
<path fill="#9DCBEF" d="M156.22,292.277c-0.183,0.025-0.364,0.056-0.554,0.056c-2.209,0-4-1.791-4-4
	c0-0.516,0.106-1.006,0.284-1.458l-45.234-17.75c-0.305,0.775-0.839,1.433-1.527,1.884l58.955,89.982
	c0.482-0.316,1.039-0.52,1.636-0.603L156.22,292.277z"/>
<path fill="#36A9E1" d="M159.667,288.333c0,0.442-0.089,0.859-0.221,1.257l12.402,4.126l-10.147-30.57l-5.104,21.307
	C158.354,284.874,159.667,286.445,159.667,288.333z"/>
<path fill="#36A9E1" d="M216.239,442.82c0.06,0.271,0.094,0.557,0.094,0.848c0,0.668-0.179,1.287-0.469,1.84l7.7,4.018l-2.568-7.736
	L216.239,442.82z"/>
<path fill="#36A9E1" d="M212.333,447.666c-2.209,0-4-1.789-4-3.998c0-1.479,0.81-2.754,2.002-3.447l-42.004-72.44
	c-0.59,0.343-1.267,0.554-1.998,0.554c-2.209,0-4-1.791-4-4c0-1.4,0.722-2.628,1.811-3.342l-58.955-89.982
	c-0.629,0.413-1.38,0.658-2.189,0.658c-2.209,0-4-1.791-4-4c0-0.756,0.222-1.455,0.586-2.057L77,252l160,238l-22.795-42.818
	C213.644,447.48,213.013,447.666,212.333,447.666z"/>
<path fill="#73BAE8" d="M106.716,269.125l45.234,17.75c0.584-1.486,2.023-2.542,3.716-2.542c0.321,0,0.63,0.048,0.929,0.12
	l5.104-21.307L158,252h-37.774l-14.276,12.985c0.646,0.71,1.051,1.646,1.051,2.682C107,268.183,106.894,268.672,106.716,269.125z"/>
<path fill="#36A9E1" d="M105.949,264.985L120.226,252h-6.798l-8.212,12.338C105.488,264.521,105.729,264.743,105.949,264.985z"/>
<path fill="#9DCBEF" d="M214.205,447.181L237,490l-13.436-40.477l-7.7-4.016C215.491,446.222,214.915,446.802,214.205,447.181z"/>
<path fill="#36A9E1" d="M199.688,398.217c-0.438,1.04-1.309,1.84-2.38,2.213l13.718,39.476c0.412-0.145,0.847-0.238,1.308-0.238
	c1.918,0,3.517,1.352,3.906,3.152l4.757-1.031l-13.353-40.229L199.688,398.217z"/>
<path fill="#9DCBEF" d="M197.308,400.43c-0.412,0.144-0.847,0.237-1.308,0.237c-2.209,0-4-1.791-4-4
	c0-1.136,0.479-2.156,1.239-2.885l-24.892-26.012c-0.005,0.004-0.01,0.006-0.016,0.009l42.004,72.441
	c0.218-0.127,0.448-0.232,0.69-0.316L197.308,400.43z"/>
<path fill="#9DCBEF" d="M169.48,361.891c0.527,0.678,0.854,1.519,0.854,2.443c0,0.018-0.005,0.035-0.005,0.052l25.086,0.332
	l-6.059-18.254L169.48,361.891z"/>
<path fill="#36A9E1" d="M199.666,395.074c0.213,0.489,0.334,1.025,0.334,1.593c0,0.55-0.111,1.073-0.312,1.55l7.956,3.342
	l-2.887-8.697L199.666,395.074z"/>
<path fill="#73BAE8" d="M417.771,328.003l-5.777,17.407l2.711,4.79c0.582-0.33,1.244-0.534,1.961-0.534
	c1.27,0,2.387,0.602,3.119,1.523l52.098-41.38c-0.268-0.336-0.48-0.711-0.631-1.122L417.771,328.003z"/>
<path fill="#36A9E1" d="M412.68,353.805l-3.513,0.121l-19.5,58.748l5.679,6.355c0.706-0.632,1.631-1.028,2.653-1.028
	c0.365,0,0.713,0.065,1.051,0.157l16.566-60.648C413.962,357.058,412.742,355.585,412.68,353.805z"/>
<path fill="#36A9E1" d="M471.251,308.688c-0.154-0.426-0.252-0.877-0.252-1.354c0-0.489,0.102-0.953,0.262-1.386l-41.109-15.24
	l-12.38,37.295L471.251,308.688z"/>
<path fill="#36A9E1" d="M395.346,419.029l-5.679-6.355l-2.248,6.771l6.703,1.618C394.315,420.261,394.75,419.561,395.346,419.029z"
	/>
<path fill="#73BAE8" d="M452.333,267.667H437.8l-7.648,23.041l41.109,15.24c0.365-0.983,1.1-1.779,2.041-2.224l-15.271-32.45
	c-0.518,0.244-1.088,0.391-1.697,0.391C454.125,271.667,452.333,269.876,452.333,267.667z"/>
<path fill="#36A9E1" d="M437.8,267.667h14.533c0-2.209,1.791-4,4-4c0.1,0,0.191,0.022,0.289,0.029L457.478,252H443L437.8,267.667z"
	/>
<path fill="#36A9E1" d="M414.705,350.201l-2.711-4.79l-2.826,8.515l3.513-0.121c-0.001-0.047-0.015-0.091-0.015-0.138
	C412.666,352.174,413.494,350.888,414.705,350.201z"/>
<path fill="#9DCBEF" d="M471.882,309.811l-52.098,41.38c0.543,0.683,0.881,1.536,0.881,2.477c0,2.209-1.791,4-4,4
	c-0.365,0-0.713-0.065-1.049-0.157l-16.566,60.648c0.423,0.116,0.824,0.284,1.18,0.522l72.541-108.025
	C472.429,310.424,472.138,310.132,471.882,309.811z"/>
<path fill="#36A9E1" d="M475,303.334c1.018,0,1.936,0.392,2.643,1.017L524,252h-55.549l6.082,51.381
	C474.689,303.363,474.839,303.334,475,303.334z"/>
<path fill="#9DCBEF" d="M456.623,263.696c2.072,0.151,3.711,1.86,3.711,3.971c0,1.6-0.945,2.969-2.303,3.608l15.271,32.45
	c0.381-0.18,0.795-0.292,1.23-0.344L468.451,252h-10.975L456.623,263.696z"/>
<path fill="#36A9E1" d="M479,307.334c0,2.209-1.791,4-4,4c-0.824,0-1.592-0.25-2.229-0.679L400.23,418.681
	c1.066,0.719,1.771,1.938,1.771,3.321c0,2.209-1.791,3.998-4,3.998c-0.645,0-1.244-0.166-1.781-0.436L364,490l160-238
	l-46.357,52.351C478.468,305.084,479,306.142,479,307.334z"/>
<path fill="#36A9E1" d="M394,422.001c0-0.326,0.049-0.636,0.123-0.938l-6.703-1.619l-4.715,14.208l12.125-9.236
	C394.316,423.742,394,422.912,394,422.001z"/>
<path fill="#9DCBEF" d="M396.218,425.564c-0.547-0.275-1.02-0.666-1.389-1.148l-12.125,9.236L364,490L396.218,425.564z"/>
<path fill="#FFFFFF" d="M99.586,265.61c-0.364,0.603-0.586,1.301-0.586,2.057c0,2.209,1.791,4,4,4c0.81,0,1.56-0.245,2.189-0.658
	L103,267.667L99.586,265.61z"/>
<path fill="#FFFFFF" d="M105.215,264.338c-0.635-0.423-1.396-0.671-2.215-0.671c-1.454,0-2.714,0.783-3.414,1.943l3.414,2.057
	L105.215,264.338z"/>
<path fill="#FFFFFF" d="M105.949,264.985c-0.22-0.242-0.461-0.464-0.734-0.646L103,267.667L105.949,264.985z"/>
<path fill="#FFFFFF" d="M106.716,269.125L103,267.667L106.716,269.125c0.178-0.453,0.284-0.942,0.284-1.458
	c0-1.037-0.404-1.972-1.051-2.682L103,267.667l2.189,3.342C105.877,270.558,106.412,269.9,106.716,269.125z"/>
<path fill="#FFFFFF" d="M159.445,289.59l-3.779-1.257l0.554,3.944C157.739,292.065,158.973,291.009,159.445,289.59z"/>
<path fill="#FFFFFF" d="M159.445,289.59c0.132-0.397,0.221-0.815,0.221-1.257c0-1.888-1.312-3.46-3.071-3.88l-0.929,3.88
	L159.445,289.59z"/>
<path fill="#FFFFFF" d="M151.95,286.875c-0.178,0.453-0.284,0.942-0.284,1.458c0,2.209,1.791,4,4,4c0.189,0,0.371-0.03,0.554-0.056
	l-0.554-3.944L151.95,286.875z"/>
<path fill="#FFFFFF" d="M156.596,284.453c-0.299-0.072-0.608-0.12-0.929-0.12c-1.693,0-3.132,1.055-3.716,2.542l3.716,1.458
	L156.596,284.453z"/>
<path fill="#FFFFFF" d="M168.296,367.718l0.036,0.063c0.005-0.003,0.01-0.005,0.016-0.008L168.296,367.718z"/>
<path fill="#FFFFFF" d="M165.78,360.389c-0.597,0.083-1.154,0.286-1.636,0.603l2.189,3.342L165.78,360.389z"/>
<path fill="#FFFFFF" d="M166.333,365.667l1.962,2.051l-1.962-3.385l-2.189-3.342c-1.089,0.714-1.811,1.941-1.811,3.342
	c0,2.209,1.791,4,4,4c0.731,0,1.408-0.211,1.998-0.554l-0.036-0.063L166.333,365.667z"/>
<path fill="#FFFFFF" d="M170.328,364.386l-3.995-0.053l1.962,3.385l0.051,0.053C169.516,367.085,170.309,365.834,170.328,364.386z"
	/>
<path fill="#FFFFFF" d="M166.333,360.333c-0.189,0-0.371,0.03-0.554,0.056l0.554,3.944l3.146-2.442
	C168.748,360.95,167.618,360.333,166.333,360.333z"/>
<path fill="#FFFFFF" d="M170.333,364.333c0-0.925-0.327-1.766-0.854-2.443l-3.146,2.442l3.995,0.053
	C170.329,364.368,170.333,364.352,170.333,364.333z"/>
<path fill="#FFFFFF" d="M197.308,400.43c1.072-0.373,1.943-1.173,2.38-2.213l-3.688-1.55L197.308,400.43z"/>
<path fill="#FFFFFF" d="M193.239,393.782c-0.761,0.729-1.239,1.749-1.239,2.885c0,2.209,1.791,4,4,4c0.46,0,0.896-0.094,1.308-0.237
	L196,396.667L193.239,393.782z"/>
<path fill="#FFFFFF" d="M199.666,395.074L196,396.667l3.688,1.55c0.201-0.477,0.312-1,0.312-1.55
	C200,396.1,199.879,395.563,199.666,395.074z"/>
<radialGradient id="SVGID_2_" cx="196.2627" cy="446.814" r="3.2923" gradientTransform="matrix(1 0 0 -1 0.165 841.5293)" gradientUnits="userSpaceOnUse">
	<stop  offset="0" style="stop-color:#FFFFFF"/>
	<stop  offset="1" style="stop-color:#FFFFFF;stop-opacity:0"/>
</radialGradient>
<path fill="#FFFFFF" stroke="url(#SVGID_2_)" stroke-miterlimit="10" d="M199.666,395.074c-0.616-1.416-2.024-2.407-3.666-2.407
	c-1.073,0-2.042,0.428-2.761,1.115l2.761,2.885L199.666,395.074z"/>
<path fill="#FFFFFF" d="M211.026,439.904c-0.243,0.084-0.472,0.189-0.69,0.316l1.998,3.445L211.026,439.904z"/>
<path fill="#FFFFFF" d="M214.205,447.181c0.71-0.379,1.287-0.959,1.66-1.674l-3.531-1.84L214.205,447.181z"/>
<path fill="#FFFFFF" d="M215.865,445.507c0.29-0.553,0.469-1.172,0.469-1.84c0-0.291-0.035-0.574-0.094-0.848l-3.906,0.848
	L215.865,445.507z"/>
<path fill="#FFFFFF" d="M210.335,440.22c-1.192,0.693-2.002,1.971-2.002,3.447c0,2.209,1.791,3.998,4,3.998
	c0.68,0,1.31-0.186,1.871-0.484l-1.871-3.514L210.335,440.22z"/>
<path fill="#FFFFFF" d="M212.333,439.667c-0.46,0-0.896,0.094-1.308,0.236l1.308,3.764l3.906-0.848
	C215.85,441.017,214.251,439.667,212.333,439.667z"/>
<path fill="#FFFFFF" d="M255.998,267.649L252,267.667l3.373,2.133c0.392-0.618,0.627-1.347,0.627-2.133
	C256,267.661,255.998,267.655,255.998,267.649z"/>
<path fill="#FFFFFF" d="M254.936,264.968c-0.393-0.427-0.869-0.773-1.414-0.998L252,267.667L254.936,264.968z"/>
<path fill="#FFFFFF" d="M255.373,269.8L252,267.667l-1.527,3.694c0.471,0.195,0.986,0.305,1.527,0.305
	C253.422,271.667,254.664,270.919,255.373,269.8z"/>
<path fill="#FFFFFF" d="M249.022,265.019c-0.629,0.707-1.022,1.627-1.022,2.648c0,1.667,1.022,3.094,2.473,3.694l1.527-3.694
	L249.022,265.019z"/>
<path fill="#FFFFFF" d="M253.522,263.971c-0.47-0.194-0.982-0.304-1.522-0.304c-1.188,0-2.245,0.529-2.978,1.352l2.978,2.648
	L253.522,263.971z"/>
<path fill="#FFFFFF" d="M255.998,267.649c-0.004-1.037-0.411-1.973-1.063-2.681L252,267.667L255.998,267.649z"/>
<path fill="#FFFFFF" d="M372,267.667c0-0.928-0.328-1.771-0.857-2.449L368,267.667H372z"/>
<path fill="#FFFFFF" d="M369.96,271.133c0.814-0.462,1.449-1.191,1.777-2.08L368,267.667L369.96,271.133z"/>
<path fill="#FFFFFF" d="M371.738,269.053c0.161-0.433,0.262-0.896,0.262-1.386h-4L371.738,269.053z"/>
<path fill="#FFFFFF" d="M365.696,264.405l1.94,2.747l0.617-0.002l1.509-3.057c-0.534-0.264-1.128-0.426-1.763-0.426
	C367.141,263.667,366.349,263.944,365.696,264.405z"/>
<path fill="#FFFFFF" d="M368.666,267.147l-0.41,0.002L368,267.667l3.143-2.449c-0.369-0.473-0.837-0.857-1.379-1.125l-1.508,3.057
	L368.666,267.147z"/>
<path fill="#FFFFFF" d="M364.689,269.911l3.311-2.244l-0.362-0.515l-3.587,0.016c-0.021,0.166-0.051,0.328-0.051,0.499
	C364,268.499,364.255,269.271,364.689,269.911z"/>
<path fill="#FFFFFF" d="M365.696,264.405c-0.894,0.633-1.503,1.623-1.646,2.763l3.586-0.016L365.696,264.405z"/>
<path fill="#FFFFFF" d="M368,271.667c0.717,0,1.381-0.204,1.961-0.534L368,267.667l-1.242,3.783
	C367.151,271.579,367.563,271.667,368,271.667z"/>
<polygon fill="#FFFFFF" points="368.255,267.149 367.637,267.152 368,267.667 "/>
<path fill="#FFFFFF" d="M366.757,271.45l1.242-3.783l-3.311,2.244C365.181,270.634,365.91,271.171,366.757,271.45z"/>
<path fill="#FFFFFF" d="M229.097,312.766l2.57,0.855l-2.25,1.746c0.65,1.33,2.003,2.254,3.583,2.254
	c0.814,0,1.569-0.246,2.201-0.664L233,313.621l-1.778-3.565C230.156,310.589,229.357,311.571,229.097,312.766z"/>
<path fill="#FFFFFF" d="M236.959,313.22c-0.151-1.49-1.101-2.743-2.432-3.293L233,313.621L236.959,313.22z"/>
<path fill="#FFFFFF" d="M237,313.622c0-0.138-0.027-0.268-0.041-0.401l-3.959,0.4l2.201,3.336
	C236.284,316.242,237,315.017,237,313.622z"/>
<path fill="#FFFFFF" d="M234.527,309.927c-0.471-0.194-0.986-0.305-1.527-0.305c-0.642,0-1.24,0.166-1.778,0.434l1.778,3.565
	L234.527,309.927z"/>
<path fill="#FFFFFF" d="M229.097,312.766c-0.061,0.276-0.097,0.562-0.097,0.855c0,0.629,0.158,1.216,0.417,1.746l2.25-1.746
	L229.097,312.766z"/>
<path fill="#FFFFFF" d="M316,305.622c0-0.832-0.254-1.604-0.688-2.244L312,305.622l1.93,3.483
	C315.158,308.423,316,307.128,316,305.622z"/>
<path fill="#FFFFFF" d="M308.041,306.023c0.115,1.146,0.703,2.145,1.58,2.798l2.379-3.199L308.041,306.023z"/>
<path fill="#FFFFFF" d="M309.621,308.821c0.666,0.497,1.484,0.801,2.379,0.801c0.703,0,1.354-0.197,1.93-0.516l-1.93-3.484
	L309.621,308.821z"/>
<path fill="#FFFFFF" d="M308.626,303.488c-0.392,0.619-0.627,1.347-0.627,2.134c0,0.137,0.027,0.267,0.041,0.401l3.959-0.401
	L308.626,303.488z"/>
<path fill="#FFFFFF" d="M315.311,303.378c-0.72-1.06-1.935-1.756-3.312-1.756c-1.422,0-2.664,0.748-3.373,1.866l3.373,2.134
	L315.311,303.378z"/>
<path fill="#FFFFFF" d="M267.825,369.618c1.185-0.147,2.212-0.795,2.842-1.745l-3.333-2.206L267.825,369.618z"/>
<path fill="#FFFFFF" d="M263.667,367.26c0.616,1.416,2.024,2.407,3.666,2.407c0.168,0,0.329-0.029,0.491-0.049l-0.491-3.951
	L263.667,367.26z"/>
<path fill="#FFFFFF" d="M269.713,362.468l-2.379,3.199l3.948-0.512C271.14,364.055,270.561,363.1,269.713,362.468z"/>
<path fill="#FFFFFF" d="M263.339,365.614c0,0.018-0.005,0.035-0.005,0.053c0,0.567,0.121,1.104,0.334,1.593l3.666-1.593
	L263.339,365.614z"/>
<path fill="#FFFFFF" d="M270.667,367.873c0.419-0.632,0.667-1.39,0.667-2.206c0-0.175-0.03-0.343-0.052-0.512l-3.948,0.512
	L270.667,367.873z"/>
<path fill="#FFFFFF" d="M263.339,365.614l3.995,0.053l-2.201-3.336C264.064,363.038,263.357,364.241,263.339,365.614z"/>
<path fill="#FFFFFF" d="M265.133,362.331l2.201,3.336l2.379-3.199c-0.667-0.497-1.484-0.801-2.379-0.801
	C266.52,361.667,265.765,361.914,265.133,362.331z"/>
<path fill="#FFFFFF" d="M339.333,356.334l3.985-0.138c-0.015-0.428-0.101-0.833-0.237-1.216L339.333,356.334z"/>
<path fill="#FFFFFF" d="M340.178,352.427L339.333,355l-1.34-2.42c-1.547,0.553-2.66,2.016-2.66,3.753
	c0,0.175,0.029,0.342,0.051,0.512l3.949-0.512l3.748-1.354C342.619,353.699,341.531,352.719,340.178,352.427z"/>
<path fill="#FFFFFF" d="M337.994,352.581l1.34,2.42l0.845-2.573c-0.272-0.059-0.556-0.093-0.845-0.093
	C338.86,352.334,338.414,352.431,337.994,352.581z"/>
<path fill="#FFFFFF" d="M338.292,360.18c0.334,0.09,0.679,0.154,1.041,0.154c1.022,0,1.946-0.396,2.653-1.028l-2.653-2.971
	L338.292,360.18z"/>
<path fill="#FFFFFF" d="M343.333,356.334c0-0.047-0.014-0.091-0.015-0.138l-3.985,0.138l2.653,2.971
	C342.807,358.573,343.333,357.52,343.333,356.334z"/>
<path fill="#FFFFFF" d="M335.384,356.846c0.209,1.615,1.369,2.917,2.908,3.334l1.041-3.846L335.384,356.846z"/>
<path fill="#FFFFFF" d="M322.921,402.46l3.334,2.206l1.039-3.846c-0.332-0.091-0.678-0.154-1.039-0.154
	C324.862,400.667,323.638,401.38,322.921,402.46z"/>
<path fill="#FFFFFF" d="M325.341,408.552c0.296,0.069,0.599,0.114,0.914,0.114c1.885,0,3.455-1.308,3.877-3.063l-3.877-0.937
	L325.341,408.552z"/>
<path fill="#FFFFFF" d="M322.688,406.441c0.522,1.05,1.485,1.837,2.653,2.11l0.914-3.886L322.688,406.441z"/>
<path fill="#FFFFFF" d="M327.294,400.82l-1.039,3.846l3.877,0.937c0.074-0.302,0.123-0.611,0.123-0.937
	C330.255,402.819,328.996,401.281,327.294,400.82z"/>
<path fill="#FFFFFF" d="M322.255,404.667c0,0.641,0.164,1.238,0.433,1.774l3.567-1.775l-3.334-2.206
	C322.501,403.093,322.255,403.85,322.255,404.667z"/>
<path fill="#FFFFFF" d="M271.428,430.847c0.389,1.803,1.988,3.152,3.906,3.152c0.628,0,1.215-0.158,1.744-0.416L275.333,430
	L271.428,430.847z"/>
<path fill="#FFFFFF" d="M275.333,426c-0.168,0-0.329,0.029-0.491,0.051l0.491,3.949l3.567-1.773
	C278.245,426.912,276.902,426,275.333,426z"/>
<path fill="#FFFFFF" d="M271.646,428.451c-0.2,0.477-0.312,1-0.312,1.549c0,0.291,0.035,0.574,0.094,0.848l3.906-0.848
	L271.646,428.451z"/>
<path fill="#FFFFFF" d="M271.646,428.451l3.688,1.549l-0.491-3.949C273.399,426.23,272.19,427.158,271.646,428.451z"/>
<path fill="#FFFFFF" d="M279.333,430c0-0.641-0.165-1.238-0.433-1.773L275.333,430l1.744,3.584
	C278.409,432.935,279.333,431.582,279.333,430z"/>
<path fill="#FFFFFF" d="M302.134,490.492c-0.288,0.553-0.469,1.174-0.469,1.842c0,2.057,1.558,3.73,3.554,3.955l0.446-3.955
	L302.134,490.492z"/>
<path fill="#FFFFFF" d="M305.218,496.289c0.148,0.016,0.295,0.045,0.447,0.045c2.209,0,4-1.791,4-4c0-0.912-0.315-1.742-0.83-2.414
	l-3.17,2.414L305.218,496.289z"/>
<path fill="#FFFFFF" d="M303.921,488.75c-0.769,0.375-1.391,0.986-1.787,1.742l3.531,1.842L303.921,488.75z"/>
<path fill="#FFFFFF" d="M308.835,489.919c-0.553-0.725-1.34-1.256-2.258-1.471l-0.912,3.885L308.835,489.919z"/>
<path fill="#FFFFFF" d="M303.921,488.75l1.744,3.584l0.912-3.885c-0.293-0.07-0.597-0.115-0.912-0.115
	C305.039,488.333,304.451,488.492,303.921,488.75z"/>
<path fill="#FFFFFF" d="M452.333,267.667h4l0.289-3.971c-0.098-0.007-0.189-0.029-0.289-0.029
	C454.125,263.667,452.333,265.458,452.333,267.667z"/>
<path fill="#FFFFFF" d="M452.333,267.667c0,2.209,1.791,4,4,4c0.609,0,1.18-0.147,1.697-0.391l-1.697-3.608L452.333,267.667
	L452.333,267.667z"/>
<path fill="#FFFFFF" d="M458.031,271.275c1.355-0.64,2.303-2.009,2.303-3.608c0-2.11-1.639-3.819-3.711-3.971l-0.289,3.971
	L458.031,271.275z"/>
<path fill="#FFFFFF" d="M471.882,309.811l3.117-2.477l-3.748,1.354C471.4,309.1,471.615,309.475,471.882,309.811z"/>
<path fill="#FFFFFF" d="M472.771,310.654c0.637,0.429,1.404,0.679,2.229,0.679c2.209,0,4-1.791,4-4c0-1.192-0.531-2.25-1.357-2.983
	L475,307.334L472.771,310.654z"/>
<path fill="#FFFFFF" d="M471.261,305.948l3.738,1.386l-1.697-3.609C472.361,304.169,471.626,304.965,471.261,305.948z"/>
<path fill="#FFFFFF" d="M477.642,304.351c-0.707-0.625-1.625-1.017-2.643-1.017c-0.16,0-0.313,0.029-0.467,0.047l0.467,3.953
	L477.642,304.351z"/>
<path fill="#FFFFFF" d="M471.251,308.688l3.748-1.354l-3.738-1.386c-0.16,0.434-0.262,0.896-0.262,1.386
	C471,307.812,471.097,308.263,471.251,308.688z"/>
<path fill="#FFFFFF" d="M474.533,303.381c-0.438,0.052-0.852,0.165-1.23,0.344l1.697,3.609L474.533,303.381z"/>
<path fill="#FFFFFF" d="M471.882,309.811c0.256,0.322,0.547,0.614,0.889,0.845l2.229-3.32L471.882,309.811z"/>
<path fill="#FFFFFF" d="M415.617,357.51c0.336,0.092,0.684,0.157,1.049,0.157c2.209,0,4-1.791,4-4c0-0.94-0.338-1.794-0.881-2.477
	l-3.119,2.477L415.617,357.51z"/>
<path fill="#FFFFFF" d="M414.705,350.201c-1.211,0.688-2.039,1.974-2.039,3.466c0,0.047,0.014,0.091,0.015,0.138l3.985-0.138
	L414.705,350.201z"/>
<path fill="#FFFFFF" d="M412.68,353.805c0.062,1.781,1.282,3.253,2.937,3.705l1.051-3.843L412.68,353.805z"/>
<path fill="#FFFFFF" d="M416.666,349.667c-0.717,0-1.379,0.204-1.961,0.534l1.961,3.466l3.119-2.477
	C419.052,350.269,417.935,349.667,416.666,349.667z"/>
<path fill="#FFFFFF" d="M395.346,419.029L398,422l1.051-3.841c-0.338-0.092-0.686-0.157-1.051-0.157
	C396.977,418.001,396.053,418.396,395.346,419.029z"/>
<path fill="#FFFFFF" d="M402,422.001c0-1.384-0.703-2.603-1.771-3.321L398,422.001l-1.781,3.563
	c0.539,0.271,1.139,0.438,1.781,0.438C400.208,426,402,424.21,402,422.001z"/>
<path fill="#FFFFFF" d="M394.123,421.063c-0.074,0.302-0.123,0.612-0.123,0.938c0,0.91,0.316,1.74,0.83,2.414L398,422
	L394.123,421.063z"/>
<path fill="#FFFFFF" d="M400.229,418.681c-0.354-0.238-0.757-0.406-1.181-0.522L398,422l-3.17,2.416
	c0.369,0.482,0.842,0.873,1.389,1.148L398,422L400.229,418.681z"/>
<path fill="#FFFFFF" d="M395.346,419.029c-0.597,0.531-1.03,1.231-1.224,2.034L398,422L395.346,419.029z"/>
<path fill="#FFFFFF" d="M173.762,165.69c-0.544-1.563-2.015-2.69-3.762-2.69c-0.219,0-0.429,0.031-0.639,0.064L168.333,167
	l1.028-3.935C167.458,163.372,166,165.01,166,167c0,0.736,0.213,1.417,0.56,2.01L170,167L173.762,165.69z"/>
<path fill="#FFFFFF" d="M166.56,169.01c0.308,0.525,0.719,0.981,1.225,1.318L170,167L166.56,169.01z"/>
<path fill="#FFFFFF" d="M167.785,170.329C168.419,170.751,169.18,171,170,171c0.266,0,0.525-0.029,0.776-0.078L170,167
	L167.785,170.329z"/>
<path fill="#FFFFFF" d="M174,167c0-0.461-0.094-0.897-0.238-1.31L170,167l0.776,3.922C172.613,170.56,174,168.943,174,167z"/>
<path fill="#FFFFFF" d="M233.687,148.17c0.406-0.626,0.647-1.368,0.647-2.169c0-0.728-0.209-1.4-0.548-1.988l-3.452,1.656
	l3.452-1.656c-0.691-1.197-1.97-2.012-3.452-2.012c-1.801,0-3.306,1.198-3.808,2.835l3.807,1.164l-3.807-1.164
	c-0.113,0.371-0.192,0.757-0.192,1.165c0,0.461,0.094,0.897,0.237,1.309l3.763-1.31L233.687,148.17z"/>
<path fill="#FFFFFF" d="M227.534,148.852l2.8-2.852l-3.763,1.31C226.775,147.896,227.099,148.426,227.534,148.852z"/>
<path fill="#FFFFFF" d="M227.534,148.852c0.722,0.708,1.708,1.148,2.8,1.148c1.408,0,2.64-0.731,3.353-1.83l-3.353-2.17
	L227.534,148.852z"/>
<path fill="#FFFFFF" d="M175.89,196.745c-1.837,0.362-3.224,1.979-3.224,3.922c0,1.036,0.404,1.972,1.051,2.682l2.949-2.682
	L175.89,196.745z"/>
<path fill="#FFFFFF" d="M179.644,203.315l-2.977-2.648l1.778,3.565C178.902,204.003,179.307,203.693,179.644,203.315z"/>
<path fill="#FFFFFF" d="M179.466,197.815c-0.722-0.708-1.708-1.148-2.8-1.148c-0.266,0-0.525,0.029-0.776,0.078l0.776,3.922
	L179.466,197.815z"/>
<path fill="#FFFFFF" d="M175.737,204.547l0.929-3.88l-2.949,2.682C174.249,203.933,174.944,204.357,175.737,204.547z"/>
<path fill="#FFFFFF" d="M179.644,203.315c0.629-0.707,1.023-1.627,1.023-2.648c0-0.22-0.031-0.432-0.065-0.642l-3.935,0.642
	L179.644,203.315z"/>
<path fill="#FFFFFF" d="M180.602,200.025c-0.139-0.859-0.542-1.627-1.135-2.21l-2.8,2.852L180.602,200.025z"/>
<path fill="#FFFFFF" d="M178.444,204.232l-1.778-3.565l-0.929,3.88c0.299,0.072,0.608,0.12,0.929,0.12
	C177.309,204.667,177.907,204.501,178.444,204.232z"/>
<path fill="#FFFFFF" d="M285.477,186.363l1.522-3.696l-3.934,0.642C283.29,184.695,284.215,185.843,285.477,186.363z"/>
<path fill="#FFFFFF" d="M290.453,184.654L287,182.667h-0.001l-1.522,3.696c0.47,0.194,0.983,0.304,1.523,0.304
	C288.482,186.667,289.762,185.852,290.453,184.654z"/>
<polygon fill="#FFFFFF" points="286.999,182.667 286.999,182.667 287,182.667 "/>
<path fill="#FFFFFF" d="M287,182.667l3.453,1.987c0.339-0.587,0.547-1.259,0.547-1.986l0,0L287,182.667L287,182.667z"/>
<path fill="#FFFFFF" d="M287,182.667l3.802-1.179c-0.506-1.629-2.007-2.82-3.803-2.82c-1.408,0-2.64,0.731-3.353,1.83L287,182.667
	L287,182.667z"/>
<path fill="#FFFFFF" d="M291,182.667c0-0.414-0.081-0.804-0.197-1.179L287,182.667H291z"/>
<path fill="#FFFFFF" d="M286.999,182.667L286.999,182.667l-3.352-2.169c-0.406,0.625-0.647,1.369-0.647,2.17
	c0,0.22,0.031,0.431,0.064,0.642L286.999,182.667L286.999,182.667z"/>
<path fill="#FFFFFF" d="M326.22,202.092c-0.108-0.468-0.295-0.906-0.553-1.294L322.333,203L326.22,202.092z"/>
<path fill="#FFFFFF" d="M326.333,203c0-0.314-0.045-0.615-0.113-0.908L322.333,203l2.303,3.261
	C325.66,205.537,326.333,204.35,326.333,203z"/>
<path fill="#FFFFFF" d="M322.333,207c0.858,0,1.65-0.277,2.303-0.738L322.333,203l-2.937,2.699
	C320.128,206.493,321.167,207,322.333,207z"/>
<path fill="#FFFFFF" d="M325.667,200.797c-0.715-1.082-1.939-1.797-3.334-1.797c-1.482,0-2.763,0.815-3.453,2.013l3.453,1.987
	L325.667,200.797z"/>
<path fill="#FFFFFF" d="M319.397,205.699l2.937-2.699l-3.453-1.987c-0.338,0.587-0.547,1.26-0.547,1.987
	C318.333,204.044,318.742,204.986,319.397,205.699z"/>
<path fill="#FFFFFF" d="M411.425,147.976l0.24-3.976l-3.334,2.203C409.005,147.221,410.134,147.898,411.425,147.976z"/>
<path fill="#FFFFFF" d="M407.74,143.264c-0.045,0.24-0.074,0.484-0.074,0.737c0,0.413,0.082,0.804,0.197,1.179l3.803-1.18
	L407.74,143.264z"/>
<path fill="#FFFFFF" d="M414.035,140.792c-0.666-0.491-1.479-0.792-2.369-0.792c-1.957,0-3.578,1.407-3.926,3.263l3.926,0.736
	L414.035,140.792z"/>
<path fill="#FFFFFF" d="M407.863,145.18c0.113,0.364,0.262,0.712,0.469,1.023l3.334-2.203L407.863,145.18z"/>
<path fill="#FFFFFF" d="M414.474,146.846c0.734-0.726,1.191-1.731,1.191-2.845c0-1.32-0.646-2.48-1.631-3.208L411.666,144
	L414.474,146.846z"/>
<path fill="#FFFFFF" d="M411.425,147.976c0.082,0.005,0.158,0.024,0.24,0.024c1.096,0,2.086-0.442,2.809-1.154L411.666,144
	L411.425,147.976z"/>
<path fill="#FFFFFF" d="M405.447,183.575c0.313,1.348,1.309,2.421,2.604,2.862l1.283-2.604l-1.283,2.604
	c0.404,0.138,0.832,0.229,1.283,0.229c1.901,0,3.485-1.33,3.893-3.107l-3.893-0.893L405.447,183.575z"/>
<path fill="#FFFFFF" d="M405.447,183.575l3.887-0.908h-4l0,0C405.333,182.981,405.378,183.283,405.447,183.575z"/>
<path fill="#FFFFFF" d="M413.226,183.56c0.066-0.288,0.107-0.584,0.107-0.892c0-2.127-1.664-3.85-3.76-3.976l-0.24,3.976
	L413.226,183.56z"/>
<path fill="#FFFFFF" d="M409.574,178.691c-0.08-0.005-0.158-0.024-0.24-0.024c-2.209,0-4,1.791-4,4h4L409.574,178.691z"/>
<path fill="#FFFFFF" d="M462.134,198.619c1.496-0.176,2.736-1.166,3.258-2.527l-3.727-1.425L462.134,198.619z"/>
<path fill="#FFFFFF" d="M461.376,198.637c0.098,0.007,0.189,0.029,0.289,0.029c0.16,0,0.314-0.029,0.469-0.047l-0.469-3.952
	L461.376,198.637z"/>
<path fill="#FFFFFF" d="M457.775,193.774l3.891,0.893l-2.807-2.845C458.326,192.347,457.947,193.021,457.775,193.774z"/>
<path fill="#FFFFFF" d="M458.525,197.115c0.674,0.865,1.689,1.438,2.852,1.522l0.289-3.97L458.525,197.115z"/>
<path fill="#FFFFFF" d="M465.392,196.092c0.172-0.444,0.273-0.921,0.273-1.425c0-2.209-1.791-4-4-4
	c-1.094,0-2.086,0.442-2.807,1.155l2.807,2.845L465.392,196.092z"/>
<path fill="#FFFFFF" d="M458.525,197.115l3.141-2.448l-3.891-0.893c-0.066,0.288-0.109,0.584-0.109,0.893
	C457.666,195.594,457.994,196.437,458.525,197.115z"/>
<line fill="none" stroke="#FFFFFF" stroke-miterlimit="10" x1="212.333" y1="443.667" x2="196" y2="396.667"/>
<line fill="none" stroke="#FFFFFF" stroke-miterlimit="10" x1="196" y1="396.667" x2="166.333" y2="364.333"/>
<line fill="none" stroke="#FFFFFF" stroke-miterlimit="10" x1="166.333" y1="364.333" x2="155.667" y2="288.333"/>
<radialGradient id="SVGID_3_" cx="195.835" cy="444.8618" r="9.1616" gradientTransform="matrix(1 0 0 -1 0.165 841.5293)" gradientUnits="userSpaceOnUse">
	<stop  offset="0" style="stop-color:#FFFFFF"/>
	<stop  offset="0" style="stop-color:#FFFFFF;stop-opacity:0.9624"/>
	<stop  offset="1" style="stop-color:#FFFFFF;stop-opacity:0"/>
</radialGradient>
<ellipse fill="url(#SVGID_3_)" cx="196" cy="396.667" rx="9.359" ry="8.96"/>
<radialGradient id="SVGID_4_" cx="267.168" cy="475.8618" r="9.1616" gradientTransform="matrix(1 0 0 -1 0.165 841.5293)" gradientUnits="userSpaceOnUse">
	<stop  offset="0" style="stop-color:#FFFFFF"/>
	<stop  offset="0" style="stop-color:#FFFFFF;stop-opacity:0.9624"/>
	<stop  offset="1" style="stop-color:#FFFFFF;stop-opacity:0"/>
</radialGradient>
<ellipse fill="url(#SVGID_4_)" cx="267.333" cy="365.667" rx="9.359" ry="8.96"/>
<radialGradient id="SVGID_5_" cx="155.502" cy="553.1958" r="9.1616" gradientTransform="matrix(1 0 0 -1 0.165 841.5293)" gradientUnits="userSpaceOnUse">
	<stop  offset="0" style="stop-color:#FFFFFF"/>
	<stop  offset="0" style="stop-color:#FFFFFF;stop-opacity:0.9624"/>
	<stop  offset="1" style="stop-color:#FFFFFF;stop-opacity:0"/>
</radialGradient>
<ellipse fill="url(#SVGID_5_)" cx="155.667" cy="288.333" rx="9.359" ry="8.96"/>
<radialGradient id="SVGID_6_" cx="367.8354" cy="573.8618" r="9.1613" gradientTransform="matrix(1 0 0 -1 0.165 841.5293)" gradientUnits="userSpaceOnUse">
	<stop  offset="0" style="stop-color:#FFFFFF"/>
	<stop  offset="0" style="stop-color:#FFFFFF;stop-opacity:0.9624"/>
	<stop  offset="1" style="stop-color:#FFFFFF;stop-opacity:0"/>
</radialGradient>
<ellipse fill="url(#SVGID_6_)" cx="368" cy="267.667" rx="9.359" ry="8.96"/>
<radialGradient id="SVGID_7_" cx="397.8354" cy="419.5293" r="9.1616" gradientTransform="matrix(1 0 0 -1 0.165 841.5293)" gradientUnits="userSpaceOnUse">
	<stop  offset="0" style="stop-color:#FFFFFF"/>
	<stop  offset="0" style="stop-color:#FFFFFF;stop-opacity:0.9624"/>
	<stop  offset="1" style="stop-color:#FFFFFF;stop-opacity:0"/>
</radialGradient>
<ellipse fill="url(#SVGID_7_)" cx="398" cy="422" rx="9.359" ry="8.96"/>
<radialGradient id="SVGID_8_" cx="474.8345" cy="534.1958" r="9.1618" gradientTransform="matrix(1 0 0 -1 0.165 841.5293)" gradientUnits="userSpaceOnUse">
	<stop  offset="0" style="stop-color:#FFFFFF"/>
	<stop  offset="0" style="stop-color:#FFFFFF;stop-opacity:0.9624"/>
	<stop  offset="1" style="stop-color:#FFFFFF;stop-opacity:0"/>
</radialGradient>
<ellipse fill="url(#SVGID_8_)" cx="475" cy="307.334" rx="9.359" ry="8.96"/>
<radialGradient id="SVGID_9_" cx="305.5015" cy="349.1968" r="9.1613" gradientTransform="matrix(1 0 0 -1 0.165 841.5293)" gradientUnits="userSpaceOnUse">
	<stop  offset="0" style="stop-color:#FFFFFF"/>
	<stop  offset="0" style="stop-color:#FFFFFF;stop-opacity:0.9624"/>
	<stop  offset="1" style="stop-color:#FFFFFF;stop-opacity:0"/>
</radialGradient>
<ellipse fill="url(#SVGID_9_)" cx="305.666" cy="492.333" rx="9.359" ry="8.96"/>
<radialGradient id="SVGID_10_" cx="176.502" cy="640.8618" r="9.1616" gradientTransform="matrix(1 0 0 -1 0.165 841.5293)" gradientUnits="userSpaceOnUse">
	<stop  offset="0" style="stop-color:#FFFFFF"/>
	<stop  offset="0" style="stop-color:#FFFFFF;stop-opacity:0.9624"/>
	<stop  offset="1" style="stop-color:#FFFFFF;stop-opacity:0"/>
</radialGradient>
<ellipse fill="url(#SVGID_10_)" cx="176.667" cy="200.667" rx="9.359" ry="8.96"/>
<radialGradient id="SVGID_11_" cx="230.168" cy="695.8618" r="9.1616" gradientTransform="matrix(1 0 0 -1 0.165 841.5293)" gradientUnits="userSpaceOnUse">
	<stop  offset="0" style="stop-color:#FFFFFF"/>
	<stop  offset="0" style="stop-color:#FFFFFF;stop-opacity:0.9624"/>
	<stop  offset="1" style="stop-color:#FFFFFF;stop-opacity:0"/>
</radialGradient>
<ellipse fill="url(#SVGID_11_)" cx="230.333" cy="145.668" rx="9.359" ry="8.96"/>
<radialGradient id="SVGID_12_" cx="322.1675" cy="638.5298" r="9.1618" gradientTransform="matrix(1 0 0 -1 0.165 841.5293)" gradientUnits="userSpaceOnUse">
	<stop  offset="0" style="stop-color:#FFFFFF"/>
	<stop  offset="0" style="stop-color:#FFFFFF;stop-opacity:0.9624"/>
	<stop  offset="1" style="stop-color:#FFFFFF;stop-opacity:0"/>
</radialGradient>
<ellipse fill="url(#SVGID_12_)" cx="322.333" cy="203" rx="9.358" ry="8.96"/>
<radialGradient id="SVGID_13_" cx="411.5015" cy="697.5298" r="9.1613" gradientTransform="matrix(1 0 0 -1 0.165 841.5293)" gradientUnits="userSpaceOnUse">
	<stop  offset="0" style="stop-color:#FFFFFF"/>
	<stop  offset="0" style="stop-color:#FFFFFF;stop-opacity:0.9624"/>
	<stop  offset="1" style="stop-color:#FFFFFF;stop-opacity:0"/>
</radialGradient>
<ellipse fill="url(#SVGID_13_)" cx="411.666" cy="144" rx="9.359" ry="8.96"/>
<radialGradient id="SVGID_14_" cx="461.5005" cy="646.8618" r="9.1618" gradientTransform="matrix(1 0 0 -1 0.165 841.5293)" gradientUnits="userSpaceOnUse">
	<stop  offset="0" style="stop-color:#FFFFFF"/>
	<stop  offset="0" style="stop-color:#FFFFFF;stop-opacity:0.9624"/>
	<stop  offset="1" style="stop-color:#FFFFFF;stop-opacity:0"/>
</radialGradient>
<ellipse fill="url(#SVGID_14_)" cx="461.666" cy="194.667" rx="9.359" ry="8.96"/>
<line fill="none" stroke="#FFFFFF" stroke-miterlimit="10" x1="155.667" y1="288.333" x2="103" y2="267.667"/>
<line fill="none" stroke="#FFFFFF" stroke-miterlimit="10" x1="103" y1="267.667" x2="120.226" y2="252"/>
<line fill="none" stroke="#FFFFFF" stroke-miterlimit="10" x1="103" y1="267.667" x2="166.333" y2="364.333"/>
<line fill="none" stroke="#FFFFFF" stroke-miterlimit="10" x1="166.333" y1="364.333" x2="212.333" y2="443.667"/>
<line fill="none" stroke="#FFFFFF" stroke-miterlimit="10" x1="155.667" y1="288.333" x2="161.7" y2="263.146"/>
<line fill="none" stroke="#FFFFFF" stroke-miterlimit="10" x1="103" y1="267.667" x2="113.427" y2="252"/>
<line fill="none" stroke="#FFFFFF" stroke-miterlimit="10" x1="103" y1="267.667" x2="77" y2="252"/>
<line fill="none" stroke="#FFFFFF" stroke-miterlimit="10" x1="212.333" y1="443.667" x2="237" y2="490"/>
<line fill="none" stroke="#FFFFFF" stroke-miterlimit="10" x1="212.333" y1="443.667" x2="223.564" y2="449.523"/>
<line fill="none" stroke="#FFFFFF" stroke-miterlimit="10" x1="196" y1="396.667" x2="204.757" y2="392.861"/>
<line fill="none" stroke="#FFFFFF" stroke-miterlimit="10" x1="166.333" y1="364.333" x2="195.415" y2="364.717"/>
<line fill="none" stroke="#FFFFFF" stroke-miterlimit="10" x1="166.333" y1="364.333" x2="189.355" y2="346.463"/>
<line fill="none" stroke="#FFFFFF" stroke-miterlimit="10" x1="170" y1="167" x2="93" y2="212"/>
<line fill="none" stroke="#FFFFFF" stroke-miterlimit="10" x1="170" y1="167" x2="140.05" y2="212"/>
<line fill="none" stroke="#FFFFFF" stroke-miterlimit="10" x1="170" y1="167" x2="176.667" y2="200.667"/>
<line fill="none" stroke="#FFFFFF" stroke-miterlimit="10" x1="176.667" y1="200.667" x2="164.206" y2="212"/>
<line fill="none" stroke="#FFFFFF" stroke-miterlimit="10" x1="176.667" y1="200.667" x2="230.333" y2="146"/>
<line fill="none" stroke="#FFFFFF" stroke-miterlimit="10" x1="230.333" y1="146" x2="170" y2="167"/>
<line fill="none" stroke="#FFFFFF" stroke-miterlimit="10" x1="230.333" y1="146" x2="178" y2="130"/>
<line fill="none" stroke="#FFFFFF" stroke-miterlimit="10" x1="178" y1="130" x2="170" y2="167"/>
<line fill="none" stroke="#FFFFFF" stroke-miterlimit="10" x1="230.333" y1="145.668" x2="263" y2="130"/>
<line fill="none" stroke="#FFFFFF" stroke-miterlimit="10" x1="230.333" y1="145.668" x2="239.958" y2="152.228"/>
<line fill="none" stroke="#FFFFFF" stroke-miterlimit="10" x1="176.667" y1="200.667" x2="192.41" y2="198.099"/>
<line fill="none" stroke="#FFFFFF" stroke-miterlimit="10" x1="176.667" y1="200.667" x2="183.473" y2="206.72"/>
<line fill="none" stroke="#FFFFFF" stroke-miterlimit="10" x1="176.667" y1="200.667" x2="173.952" y2="212"/>
<line fill="none" stroke="#FFFFFF" stroke-miterlimit="10" x1="176.667" y1="200.667" x2="180.916" y2="209.187"/>
<line fill="none" stroke="#FFFFFF" stroke-miterlimit="10" x1="286.999" y1="182.667" x2="274.997" y2="174.9"/>
<line fill="none" stroke="#FFFFFF" stroke-miterlimit="10" x1="286.999" y1="182.667" x2="322.637" y2="171.614"/>
<line fill="none" stroke="#FFFFFF" stroke-miterlimit="10" x1="286.999" y1="182.667" x2="333.957" y2="182.667"/>
<line fill="none" stroke="#FFFFFF" stroke-miterlimit="10" x1="286.999" y1="182.667" x2="322.333" y2="203"/>
<line fill="none" stroke="#FFFFFF" stroke-miterlimit="10" x1="286.999" y1="182.667" x2="274.921" y2="212"/>
<line fill="none" stroke="#FFFFFF" stroke-miterlimit="10" x1="286.999" y1="182.667" x2="263.039" y2="186.576"/>
<line fill="none" stroke="#FFFFFF" stroke-miterlimit="10" x1="322.333" y1="203" x2="341.689" y2="190.216"/>
<line fill="none" stroke="#FFFFFF" stroke-miterlimit="10" x1="322.333" y1="203" x2="348.516" y2="196.881"/>
<line fill="none" stroke="#FFFFFF" stroke-miterlimit="10" x1="322.333" y1="203" x2="328.688" y2="212"/>
<line fill="none" stroke="#FFFFFF" stroke-miterlimit="10" x1="322.333" y1="203" x2="312.544" y2="212"/>
<line fill="none" stroke="#FFFFFF" stroke-miterlimit="10" x1="411.666" y1="144" x2="337" y2="130"/>
<line fill="none" stroke="#FFFFFF" stroke-miterlimit="10" x1="411.666" y1="144" x2="366.147" y2="158.118"/>
<line fill="none" stroke="#FFFFFF" stroke-miterlimit="10" x1="411.666" y1="144" x2="375.958" y2="167.583"/>
<line fill="none" stroke="#FFFFFF" stroke-miterlimit="10" x1="411.666" y1="144" x2="409.333" y2="182.667"/>
<line fill="none" stroke="#FFFFFF" stroke-miterlimit="10" x1="409.333" y1="182.667" x2="391.593" y2="182.667"/>
<line fill="none" stroke="#FFFFFF" stroke-miterlimit="10" x1="409.333" y1="182.667" x2="395.054" y2="186.004"/>
<line fill="none" stroke="#FFFFFF" stroke-miterlimit="10" x1="409.333" y1="182.667" x2="404.005" y2="194.641"/>
<line fill="none" stroke="#FFFFFF" stroke-miterlimit="10" x1="409.333" y1="182.667" x2="422" y2="212"/>
<line fill="none" stroke="#FFFFFF" stroke-miterlimit="10" x1="409.333" y1="182.667" x2="461.666" y2="194.667"/>
<line fill="none" stroke="#FFFFFF" stroke-miterlimit="10" x1="461.666" y1="194.667" x2="411.666" y2="144"/>
<line fill="none" stroke="#FFFFFF" stroke-miterlimit="10" x1="411.666" y1="144" x2="422" y2="130"/>
<line fill="none" stroke="#FFFFFF" stroke-miterlimit="10" x1="461.666" y1="194.667" x2="507" y2="212"/>
<line fill="none" stroke="#FFFFFF" stroke-miterlimit="10" x1="461.666" y1="194.667" x2="463.718" y2="212"/>
<line fill="none" stroke="#FFFFFF" stroke-miterlimit="10" x1="461.666" y1="194.667" x2="460.4" y2="212"/>
<line fill="none" stroke="#FFFFFF" stroke-miterlimit="10" x1="461.666" y1="194.667" x2="439.425" y2="212"/>
<line fill="none" stroke="#FFFFFF" stroke-miterlimit="10" x1="252" y1="267.667" x2="234.384" y2="252"/>
<line fill="none" stroke="#FFFFFF" stroke-miterlimit="10" x1="252" y1="267.667" x2="258.451" y2="252"/>
<line fill="none" stroke="#FFFFFF" stroke-miterlimit="10" x1="252" y1="267.667" x2="269.04" y2="252"/>
<line fill="none" stroke="#FFFFFF" stroke-miterlimit="10" x1="252" y1="267.667" x2="368" y2="267.667"/>
<line fill="none" stroke="#FFFFFF" stroke-miterlimit="10" x1="368" y1="267.667" x2="356.937" y2="252"/>
<line fill="none" stroke="#FFFFFF" stroke-miterlimit="10" x1="368" y1="267.667" x2="375.725" y2="252"/>
<line fill="none" stroke="#FFFFFF" stroke-miterlimit="10" x1="368" y1="267.667" x2="388.103" y2="252"/>
<line fill="none" stroke="#FFFFFF" stroke-miterlimit="10" x1="368" y1="267.667" x2="394.55" y2="267.667"/>
<line fill="none" stroke="#FFFFFF" stroke-miterlimit="10" x1="368" y1="267.667" x2="391.517" y2="276.385"/>
<line fill="none" stroke="#FFFFFF" stroke-miterlimit="10" x1="368" y1="267.667" x2="384.441" y2="296.721"/>
<line fill="none" stroke="#FFFFFF" stroke-miterlimit="10" x1="368" y1="267.667" x2="339.333" y2="356.334"/>
<line fill="none" stroke="#FFFFFF" stroke-miterlimit="10" x1="339.333" y1="356.334" x2="367.205" y2="346.268"/>
<line fill="none" stroke="#FFFFFF" stroke-miterlimit="10" x1="339.333" y1="356.334" x2="363.998" y2="355.483"/>
<line fill="none" stroke="#FFFFFF" stroke-miterlimit="10" x1="339.333" y1="356.334" x2="356.873" y2="375.965"/>
<line fill="none" stroke="#FFFFFF" stroke-miterlimit="10" x1="339.333" y1="356.334" x2="326.255" y2="404.666"/>
<line fill="none" stroke="#FFFFFF" stroke-miterlimit="10" x1="326.255" y1="404.666" x2="345.287" y2="409.264"/>
<line fill="none" stroke="#FFFFFF" stroke-miterlimit="10" x1="326.255" y1="404.666" x2="305.666" y2="492.333"/>
<line fill="none" stroke="#FFFFFF" stroke-miterlimit="10" x1="305.666" y1="492.333" x2="300.5" y2="538"/>
<line fill="none" stroke="#FFFFFF" stroke-miterlimit="10" x1="305.666" y1="492.333" x2="320.253" y2="481.222"/>
<line fill="none" stroke="#FFFFFF" stroke-miterlimit="10" x1="305.666" y1="492.333" x2="279.694" y2="478.791"/>
<line fill="none" stroke="#FFFFFF" stroke-miterlimit="10" x1="305.666" y1="492.333" x2="275.333" y2="430"/>
<line fill="none" stroke="#FFFFFF" stroke-miterlimit="10" x1="275.333" y1="430" x2="263.455" y2="432.578"/>
<line fill="none" stroke="#FFFFFF" stroke-miterlimit="10" x1="275.333" y1="430" x2="260.334" y2="423.699"/>
<line fill="none" stroke="#FFFFFF" stroke-miterlimit="10" x1="275.333" y1="430" x2="326.255" y2="404.666"/>
<line fill="none" stroke="#FFFFFF" stroke-miterlimit="10" x1="326.255" y1="404.666" x2="267.333" y2="365.667"/>
<line fill="none" stroke="#FFFFFF" stroke-miterlimit="10" x1="267.333" y1="365.667" x2="275.333" y2="430"/>
<line fill="none" stroke="#FFFFFF" stroke-miterlimit="10" x1="267.333" y1="365.667" x2="243.571" y2="375.994"/>
<line fill="none" stroke="#FFFFFF" stroke-miterlimit="10" x1="267.333" y1="365.667" x2="239.814" y2="365.304"/>
<line fill="none" stroke="#FFFFFF" stroke-miterlimit="10" x1="267.333" y1="365.667" x2="339.333" y2="356.334"/>
<line fill="none" stroke="#FFFFFF" stroke-miterlimit="10" x1="339.333" y1="356.334" x2="312" y2="305.622"/>
<line fill="none" stroke="#FFFFFF" stroke-miterlimit="10" x1="312" y1="305.622" x2="267.333" y2="365.667"/>
<line fill="none" stroke="#FFFFFF" stroke-miterlimit="10" x1="267.333" y1="365.667" x2="233" y2="313.621"/>
<line fill="none" stroke="#FFFFFF" stroke-miterlimit="10" x1="233" y1="313.621" x2="312" y2="305.622"/>
<line fill="none" stroke="#FFFFFF" stroke-miterlimit="10" x1="312" y1="305.622" x2="368" y2="267.667"/>
<line fill="none" stroke="#FFFFFF" stroke-miterlimit="10" x1="312" y1="305.622" x2="252" y2="267.667"/>
<line fill="none" stroke="#FFFFFF" stroke-miterlimit="10" x1="252" y1="267.667" x2="233" y2="313.621"/>
<line fill="none" stroke="#FFFFFF" stroke-miterlimit="10" x1="233" y1="313.621" x2="223.799" y2="319.728"/>
<line fill="none" stroke="#FFFFFF" stroke-miterlimit="10" x1="233" y1="313.621" x2="220.328" y2="309.848"/>
<line fill="none" stroke="#FFFFFF" stroke-miterlimit="10" x1="233" y1="313.621" x2="202.268" y2="252"/>
<line fill="none" stroke="#FFFFFF" stroke-miterlimit="10" x1="456.333" y1="267.667" x2="457.478" y2="252"/>
<line fill="none" stroke="#FFFFFF" stroke-miterlimit="10" x1="456.333" y1="267.667" x2="437.8" y2="267.667"/>
<line fill="none" stroke="#FFFFFF" stroke-miterlimit="10" x1="475" y1="307.334" x2="456.333" y2="267.667"/>
<line fill="none" stroke="#FFFFFF" stroke-miterlimit="10" x1="475" y1="307.334" x2="468.451" y2="252"/>
<line fill="none" stroke="#FFFFFF" stroke-miterlimit="10" x1="475" y1="307.334" x2="524" y2="252"/>
<line fill="none" stroke="#FFFFFF" stroke-miterlimit="10" x1="475" y1="307.334" x2="430.152" y2="290.708"/>
<line fill="none" stroke="#FFFFFF" stroke-miterlimit="10" x1="475" y1="307.334" x2="417.771" y2="328.003"/>
<line fill="none" stroke="#FFFFFF" stroke-miterlimit="10" x1="475" y1="307.334" x2="416.666" y2="353.667"/>
<line fill="none" stroke="#FFFFFF" stroke-miterlimit="10" x1="475" y1="307.334" x2="398" y2="422"/>
<line fill="none" stroke="#FFFFFF" stroke-miterlimit="10" x1="398" y1="422" x2="416.666" y2="353.667"/>
<line fill="none" stroke="#FFFFFF" stroke-miterlimit="10" x1="416.666" y1="353.667" x2="411.994" y2="345.411"/>
<line fill="none" stroke="#FFFFFF" stroke-miterlimit="10" x1="416.666" y1="353.667" x2="409.167" y2="353.926"/>
<line fill="none" stroke="#FFFFFF" stroke-miterlimit="10" x1="398" y1="422" x2="389.667" y2="412.673"/>
<line fill="none" stroke="#FFFFFF" stroke-miterlimit="10" x1="398" y1="422" x2="387.419" y2="419.444"/>
<line fill="none" stroke="#FFFFFF" stroke-miterlimit="10" x1="398" y1="422" x2="382.705" y2="433.652"/>
<line fill="none" stroke="#FFFFFF" stroke-miterlimit="10" x1="398" y1="422" x2="364" y2="490"/>
<line fill="none" stroke="#FFFFFF" stroke-miterlimit="10" x1="171.847" y1="293.717" x2="155.667" y2="288.333"/>
</svg>
