<?xml version="1.0" encoding="utf-8"?>
<!-- Generator: Adobe Illustrator 16.0.0, SVG Export Plug-In . SVG Version: 6.00 Build 0)  -->
<!DOCTYPE svg PUBLIC "-//W3C//DTD SVG 1.1//EN" "http://www.w3.org/Graphics/SVG/1.1/DTD/svg11.dtd">
<svg version="1.1" id="Ebene_1" xmlns="http://www.w3.org/2000/svg" xmlns:xlink="http://www.w3.org/1999/xlink" x="0px" y="0px"
	 width="252px" height="56px" viewBox="0 0 252 56" enable-background="new 0 0 252 56" xml:space="preserve">
<title>menu_icons</title>
<desc>Created with Sketch.</desc>
<g id="menu_icons">
	<g id="blue" transform="translate(0.000000, 28.000000)">
		<g id="Icon_x2F_wallet-26-white" transform="translate(1.000000, 1.000000)">
			<rect id="ico-zone" fill="#D8D8D8" fill-opacity="0" width="26" height="26"/>
			<path id="Path" fill="#FFFFFF" d="M24.48,12.421H20.8c-2.007,0-3.64,1.644-3.64,3.665s1.633,3.666,3.64,3.666h3.68v1.57
				c0,1.471-1.187,2.666-2.64,2.666H4.16c-1.454,0-2.64-1.195-2.64-2.666V10.85c0-1.471,1.187-2.665,2.64-2.665h17.68
				c1.454,0,2.64,1.194,2.64,2.665V12.421z"/>
			<path id="Path_1_" fill="#FFFFFF" d="M20.8,13.469h3.68v5.236H20.8c-1.434,0-2.6-1.176-2.6-2.619S19.366,13.469,20.8,13.469z
				 M20.8,17.657c0.86,0,1.56-0.705,1.56-1.571c0-0.865-0.7-1.57-1.56-1.57c-0.86,0-1.56,0.705-1.56,1.57
				C19.24,16.952,19.94,17.657,20.8,17.657z"/>
			<path id="Path_2_" fill="#FFFFFF" d="M20.8,16.957c0.473,0,0.86-0.391,0.86-0.871s-0.388-0.871-0.86-0.871
				c-0.472,0-0.86,0.391-0.86,0.871S20.328,16.957,20.8,16.957z"/>
			<path id="Shape" fill="#FFFFFF" d="M24.052,7.94c-0.541-1.335-1.814-2.446-3.402-2.766l0.992,2.011
				C22.249,7.154,23.176,7.256,24.052,7.94z M4.03,7.184L7.891,5.09H6.554C4.431,5.014,2.769,6.11,1.942,7.941
				C2.697,7.389,3.062,7.32,4.03,7.184z M11.397,7.183l7.14-3.893c-0.439-0.628-0.86-0.915-1.498-1.116
				c-0.898-0.282-1.669,0-2.358,0.435L6.237,7.183H11.397z"/>
			<polygon id="Shape_1_" fill="#FFFFFF" points="20.475,7.186 19.019,4.242 13.578,7.186 			"/>
		</g>
		<g id="Icon_x2F_token-26-white" transform="translate(57.000000, 1.000000)">
			<rect id="ico-zone_1_" fill="#D8D8D8" fill-opacity="0" width="26" height="26"/>
			<path id="box" fill="#FFFFFF" d="M14.15,0.961l10.983,10.983c0.609,0.608,0.609,1.597,0,2.206L14.15,25.134
				c-0.609,0.609-1.597,0.609-2.206,0L0.961,14.15c-0.609-0.609-0.609-1.598,0-2.206L11.944,0.961
				C12.553,0.352,13.541,0.352,14.15,0.961z"/>
			<path id="box_1_" fill="#36A9E0" d="M13.415,6.44c-0.203-0.203-0.532-0.203-0.735,0L6.44,12.68c-0.203,0.203-0.203,0.532,0,0.735
				l6.239,6.239c0.203,0.203,0.532,0.203,0.735,0l6.239-6.239c0.203-0.203,0.203-0.532,0-0.735L13.415,6.44z M14.15,5.705
				l6.239,6.239c0.609,0.608,0.609,1.597,0,2.206l-6.239,6.238c-0.609,0.609-1.597,0.609-2.206,0L5.705,14.15
				c-0.609-0.609-0.609-1.598,0-2.206l6.239-6.239C12.553,5.096,13.541,5.096,14.15,5.705z"/>
			<path id="dots" fill="#36A9E0" d="M13.419,10.903c-0.463,0-0.839-0.376-0.839-0.839s0.375-0.839,0.839-0.839
				c0.463,0,0.839,0.376,0.839,0.839S13.882,10.903,13.419,10.903z M15.936,13.42c-0.463,0-0.839-0.376-0.839-0.84
				c0-0.463,0.375-0.838,0.839-0.838s0.839,0.375,0.839,0.838C16.774,13.044,16.399,13.42,15.936,13.42z M13.419,13.42
				c-0.463,0-0.839-0.376-0.839-0.84c0-0.463,0.375-0.838,0.839-0.838c0.463,0,0.839,0.375,0.839,0.838
				C14.258,13.044,13.882,13.42,13.419,13.42z"/>
		</g>
		<g id="Icon_x2F_dex-26-white" transform="translate(29.000000, 1.000000)">
			<rect id="ico-zone_2_" fill="#D8D8D8" fill-opacity="0" width="26" height="26"/>
			<g id="dex-26-white">
				<polygon id="Shape_2_" fill="none" points="0,0 26,0 26,26 0,26 				"/>
				<path id="Shape_3_" fill="#FFFFFF" d="M2.9,1.479c0-0.266,0.215-0.48,0.48-0.48s0.48,0.215,0.48,0.48v23.043
					c0,0.266-0.215,0.48-0.48,0.48s-0.48-0.215-0.48-0.48V1.479z M12.4,1.479c0-0.266,0.215-0.48,0.48-0.48s0.48,0.215,0.48,0.48
					V17.87c0,0.265-0.215,0.479-0.48,0.479s-0.48-0.215-0.48-0.479V1.479z M21.9,1.479c0-0.266,0.215-0.48,0.48-0.48
					s0.48,0.215,0.48,0.48v23.043c0,0.266-0.215,0.48-0.48,0.48s-0.48-0.215-0.48-0.48V1.479z"/>
				<path id="Shape_4_" fill="#FFFFFF" d="M1.3,9.271h4.159c0.387,0,0.7,0.313,0.7,0.699v8.918c0,0.387-0.313,0.7-0.7,0.7H1.3
					c-0.386,0-0.7-0.313-0.7-0.7V9.971C0.6,9.584,0.914,9.271,1.3,9.271z M10.809,6.41h4.158c0.387,0,0.7,0.313,0.7,0.699v6.089
					c0,0.386-0.313,0.7-0.7,0.7H10.81c-0.387,0-0.7-0.314-0.7-0.7V7.109C10.11,6.724,10.423,6.41,10.809,6.41L10.809,6.41z
					 M20.3,6.408h4.159c0.387,0,0.7,0.313,0.7,0.699v9.871c0,0.387-0.313,0.699-0.7,0.699H20.3c-0.386,0-0.7-0.313-0.7-0.699V7.107
					C19.6,6.721,19.914,6.408,20.3,6.408z"/>
			</g>
		</g>
	</g>
	<g id="Icon_x2F_wallet-26-basic700" transform="translate(1.000000, 1.000000)">
		<rect id="ico-zone_3_" fill="#D8D8D8" fill-opacity="0" width="26" height="26"/>
		<polygon id="Path-2" fill="#FFFFFF" points="1.358,7.062 2.474,5.278 4.246,4.039 6.588,3.648 8.766,3.648 9.863,3.648 
			12.342,2.242 14.082,1.351 15.362,0.8 16.626,0.8 17.585,0.8 18.148,1.351 18.668,2.242 19.385,3.213 22.24,4.51 24.044,5.934 
			24.51,7.062 3.356,7.062 		"/>
		<path id="Shape_5_" fill="#4E5C6E" d="M21.84,23.988H4.16c-2.007,0-3.64-1.645-3.64-3.666V9.85c0-2.021,1.633-3.666,3.64-3.666
			h17.68c2.007,0,3.64,1.644,3.64,3.666v10.473C25.48,22.344,23.847,23.988,21.84,23.988z M4.16,7.232c-1.434,0-2.6,1.175-2.6,2.618
			v10.473c0,1.443,1.166,2.618,2.6,2.618h17.68c1.434,0,2.6-1.175,2.6-2.618V9.85c0-1.443-1.166-2.618-2.6-2.618H4.16z"/>
		<path id="Path_3_" fill="#FFFFFF" d="M4.16,7.232c-1.434,0-2.6,1.175-2.6,2.618v10.473c0,1.443,1.166,2.618,2.6,2.618h17.68
			c1.434,0,2.6-1.175,2.6-2.618V9.85c0-1.443-1.166-2.618-2.6-2.618H4.16z"/>
		<path id="Shape_6_" fill="#4E5C6E" d="M20.8,16.657c-0.86,0-1.56-0.705-1.56-1.571c0-0.866,0.7-1.571,1.56-1.571
			c0.86,0,1.56,0.705,1.56,1.571C22.36,15.952,21.66,16.657,20.8,16.657z M20.8,14.563c-0.286,0-0.52,0.235-0.52,0.524
			s0.234,0.523,0.52,0.523c0.286,0,0.52-0.234,0.52-0.523S21.086,14.563,20.8,14.563z"/>
		<path id="Shape_7_" fill="#4E5C6E" d="M24.96,18.752H20.8c-2.007,0-3.64-1.645-3.64-3.666c0-2.021,1.633-3.666,3.64-3.666h4.16
			c0.287,0,0.52,0.234,0.52,0.523v6.284C25.48,18.517,25.247,18.752,24.96,18.752z M20.8,12.468c-1.434,0-2.6,1.175-2.6,2.618
			c0,1.443,1.166,2.618,2.6,2.618h3.64v-5.236H20.8z M21.32,7.232c-0.19,0-0.373-0.106-0.465-0.289l-2.202-4.434
			c-0.317-0.639-0.864-1.11-1.54-1.325c-0.674-0.216-1.393-0.147-2.017,0.192L4.406,7.169C4.155,7.306,3.839,7.211,3.703,6.957
			C3.566,6.702,3.661,6.383,3.914,6.247l10.688-5.795c0.875-0.473,1.878-0.567,2.825-0.267c0.946,0.302,1.713,0.96,2.157,1.855
			l2.202,4.434c0.128,0.259,0.024,0.573-0.233,0.703C21.477,7.214,21.398,7.232,21.32,7.232z"/>
		<path id="Shape_8_" fill="#4E5C6E" d="M11.514,7.232c-0.185,0-0.364-0.1-0.458-0.275c-0.136-0.255-0.042-0.572,0.211-0.709
			l7.726-4.189c0.251-0.136,0.568-0.042,0.705,0.214c0.136,0.254,0.042,0.572-0.211,0.709L11.761,7.17
			C11.682,7.212,11.597,7.232,11.514,7.232z M1.04,10.374c-0.287,0-0.52-0.234-0.52-0.523V8.803c0-3.176,2.567-5.76,5.72-5.76h3.64
			c0.287,0,0.52,0.235,0.52,0.524S10.167,4.09,9.88,4.09H6.24c-2.581,0-4.68,2.115-4.68,4.713V9.85
			C1.56,10.139,1.327,10.374,1.04,10.374z M24.96,10.374c-0.287,0-0.52-0.234-0.52-0.523V8.803c0-2.598-2.1-4.713-4.68-4.713
			c-0.287,0-0.52-0.234-0.52-0.523s0.233-0.524,0.52-0.524c3.153,0,5.72,2.584,5.72,5.76V9.85
			C25.48,10.139,25.247,10.374,24.96,10.374z"/>
	</g>
	<g id="Icon_x2F_token-26-basic700" transform="translate(57.000000, 1.000000)">
		<rect id="ico-zone_4_" fill="#D8D8D8" fill-opacity="0" width="26" height="26"/>
		<path id="Path_4_" fill="#FFFFFF" d="M13.417,1.698c-0.203-0.203-0.532-0.203-0.735,0L1.698,12.681
			c-0.203,0.203-0.203,0.532,0,0.735L12.681,24.4c0.203,0.203,0.532,0.203,0.735,0L24.4,13.417c0.203-0.203,0.203-0.532,0-0.735
			L13.417,1.698z"/>
		<path id="box_2_" fill="#4E5C6E" d="M13.417,1.696c-0.203-0.203-0.532-0.203-0.735,0L1.698,12.68
			c-0.203,0.203-0.203,0.532,0,0.735l10.983,10.983c0.203,0.203,0.532,0.203,0.735,0L24.4,13.415c0.203-0.203,0.203-0.532,0-0.735
			L13.417,1.696z M14.15,0.961l10.983,10.983c0.609,0.609,0.609,1.597,0,2.206L14.15,25.134c-0.609,0.609-1.597,0.609-2.206,0
			L0.961,14.15c-0.609-0.609-0.609-1.597,0-2.206L11.944,0.961C12.553,0.352,13.541,0.352,14.15,0.961z"/>
		<path id="Path_5_" fill="#FFFFFF" d="M13.392,6.418c-0.203-0.203-0.532-0.203-0.735,0l-6.239,6.239
			c-0.203,0.203-0.203,0.532,0,0.735l6.239,6.239c0.203,0.203,0.532,0.203,0.735,0l6.239-6.239c0.203-0.203,0.203-0.532,0-0.735
			L13.392,6.418z"/>
		<path id="box_3_" fill="#4E5C6E" d="M13.415,6.44c-0.203-0.203-0.532-0.203-0.735,0L6.44,12.68c-0.203,0.203-0.203,0.532,0,0.735
			l6.239,6.239c0.203,0.203,0.532,0.203,0.735,0l6.239-6.239c0.203-0.203,0.203-0.532,0-0.735L13.415,6.44z M14.15,5.705
			l6.239,6.239c0.609,0.609,0.609,1.597,0,2.206l-6.239,6.239c-0.609,0.609-1.597,0.609-2.206,0L5.705,14.15
			c-0.609-0.609-0.609-1.597,0-2.206l6.239-6.239C12.553,5.096,13.541,5.096,14.15,5.705z"/>
		<path id="dots_1_" fill="#4E5C6E" d="M13.419,10.903c-0.463,0-0.839-0.375-0.839-0.839c0-0.463,0.375-0.839,0.839-0.839
			c0.463,0,0.839,0.376,0.839,0.839C14.258,10.528,13.882,10.903,13.419,10.903z M15.936,13.419c-0.463,0-0.839-0.375-0.839-0.839
			s0.375-0.838,0.839-0.838s0.839,0.375,0.839,0.838S16.399,13.419,15.936,13.419z M13.419,13.419c-0.463,0-0.839-0.375-0.839-0.839
			s0.375-0.838,0.839-0.838c0.463,0,0.839,0.375,0.839,0.838S13.882,13.419,13.419,13.419z"/>
	</g>
	<g id="Icon_x2F_dex-26-basic700" transform="translate(29.000000, 1.000000)">
		<rect id="ico-zone_5_" fill="#D8D8D8" fill-opacity="0" width="26" height="26"/>
		<path id="_x31_" fill="#4E5C6E" d="M2.9,8.674V1.479C2.9,1.214,3.115,1,3.38,1s0.48,0.214,0.48,0.479v7.195h1.92
			c0.541,0,0.98,0.438,0.98,0.979v9.565c0,0.541-0.439,0.979-0.98,0.979H3.86v4.326C3.86,24.786,3.645,25,3.38,25
			S2.9,24.786,2.9,24.521v-4.326H0.98c-0.541,0-0.98-0.438-0.98-0.979V9.652c0-0.541,0.439-0.979,0.98-0.979H2.9z M1,9.674v9.522
			h4.76V9.674H1z"/>
		<polygon id="Path_6_" fill="#FFFFFF" points="1,9.674 1,19.196 5.76,19.196 5.76,9.674 		"/>
		<path id="_x32_" fill="#4E5C6E" d="M12.4,5.804V1.479C12.4,1.214,12.615,1,12.88,1s0.48,0.214,0.48,0.479v4.326h1.92
			c0.541,0,0.98,0.438,0.98,0.979v6.739c0,0.541-0.439,0.979-0.98,0.979h-1.92v3.37c0,0.264-0.215,0.478-0.48,0.478
			s-0.48-0.214-0.48-0.478V14.5h-1.92c-0.541,0-0.98-0.438-0.98-0.979V6.783c0-0.541,0.439-0.979,0.98-0.979H12.4z M10.5,6.804V13.5
			h4.76V6.804H10.5z"/>
		<polygon id="Path_7_" fill="#FFFFFF" points="10.5,6.804 10.5,13.5 15.26,13.5 15.26,6.804 		"/>
		<path id="_x33_" fill="#4E5C6E" d="M21.9,5.804V1.479C21.9,1.214,22.115,1,22.38,1s0.48,0.214,0.48,0.479v4.326h1.4
			c0.829,0,1.5,0.672,1.5,1.5v9.479c0,0.828-0.671,1.5-1.5,1.5h-1.4v6.239c0,0.265-0.215,0.479-0.48,0.479s-0.48-0.214-0.48-0.479
			v-6.239h-1.4c-0.829,0-1.5-0.672-1.5-1.5V7.304c0-0.828,0.671-1.5,1.5-1.5H21.9z M20.5,6.804c-0.276,0-0.5,0.224-0.5,0.5v9.479
			c0,0.276,0.224,0.5,0.5,0.5h3.76c0.276,0,0.5-0.224,0.5-0.5V7.304c0-0.276-0.224-0.5-0.5-0.5H20.5z"/>
		<path id="Path_8_" fill="#FFFFFF" d="M20.5,6.804c-0.276,0-0.5,0.224-0.5,0.5v9.479c0,0.276,0.224,0.5,0.5,0.5h3.76
			c0.276,0,0.5-0.224,0.5-0.5V7.304c0-0.276-0.224-0.5-0.5-0.5H20.5z"/>
	</g>
	<g id="Icon_x2F_setting-26-basic700" transform="translate(85.000000, 1.000000)">
		<rect id="ico-zone_6_" fill="#D8D8D8" fill-opacity="0" width="26" height="26"/>
		<path id="Path_9_" fill="#FFFFFF" d="M24.481,13.985l-2.051,0.588c-0.485,0.139-0.867,0.516-1.011,1
			c-0.164,0.541-0.38,1.065-0.645,1.564c-0.239,0.444-0.235,0.979,0.009,1.42l1.03,1.856l-1.399,1.399l-1.856-1.03
			c-0.219-0.122-0.466-0.185-0.717-0.186c-0.245,0.001-0.487,0.061-0.704,0.176c-0.499,0.265-1.023,0.481-1.564,0.645
			c-0.484,0.145-0.861,0.526-1,1.012l-0.588,2.051h-1.97l-0.588-2.052c-0.14-0.485-0.517-0.867-1-1.012
			c-0.541-0.164-1.064-0.379-1.564-0.645c-0.216-0.115-0.458-0.175-0.703-0.176c-0.251,0-0.498,0.064-0.717,0.186l-1.856,1.03
			l-1.399-1.399l1.03-1.856c0.244-0.44,0.248-0.974,0.01-1.418c-0.265-0.5-0.481-1.023-0.645-1.565
			c-0.144-0.484-0.525-0.862-1.011-1.001l-2.052-0.588v-1.97l2.051-0.588c0.486-0.139,0.867-0.516,1.012-1
			c0.164-0.541,0.38-1.064,0.645-1.563C5.465,8.42,5.462,7.885,5.217,7.443l-1.03-1.857l1.4-1.399l1.856,1.03
			C7.662,5.338,7.909,5.402,8.16,5.402c0.245,0,0.487-0.061,0.703-0.176c0.499-0.265,1.023-0.481,1.563-0.645
			c0.484-0.145,0.861-0.526,1.001-1.011l0.588-2.051h1.97l0.588,2.051c0.139,0.485,0.516,0.866,1,1.011
			c0.541,0.164,1.065,0.38,1.564,0.645c0.217,0.116,0.458,0.176,0.704,0.177c0.25,0,0.497-0.063,0.716-0.185l1.857-1.03l1.399,1.4
			l-1.03,1.855c-0.244,0.44-0.248,0.975-0.01,1.419c0.265,0.5,0.481,1.023,0.645,1.564c0.145,0.484,0.526,0.862,1.012,1.001
			l2.051,0.588V13.985z M13,17.493c1.191,0,2.334-0.473,3.177-1.316c0.843-0.842,1.316-1.985,1.316-3.177
			c0-2.481-2.011-4.493-4.493-4.493S8.507,10.519,8.507,13S10.519,17.493,13,17.493z"/>
		<path id="Shape_9_" fill="#4E5C6E" d="M24.757,11.055l-2.052-0.588c-0.16-0.046-0.285-0.171-0.332-0.331
			C22.19,9.534,21.95,8.95,21.654,8.393c-0.079-0.146-0.079-0.321,0.001-0.466l1.03-1.855c0.216-0.39,0.148-0.875-0.167-1.19
			l-1.399-1.4c-0.315-0.315-0.801-0.383-1.19-0.167l-1.857,1.03c-0.071,0.04-0.151,0.06-0.232,0.06
			c-0.082,0-0.162-0.021-0.234-0.059c-0.556-0.295-1.14-0.536-1.743-0.719c-0.159-0.047-0.284-0.172-0.331-0.331l-0.588-2.051
			c-0.123-0.428-0.515-0.724-0.96-0.724h-1.97c-0.445,0-0.837,0.295-0.96,0.724l-0.588,2.051c-0.047,0.16-0.171,0.284-0.331,0.332
			C9.534,3.809,8.95,4.05,8.394,4.345C8.322,4.384,8.241,4.404,8.16,4.404c-0.081,0-0.161-0.021-0.232-0.06l-1.856-1.03
			c-0.39-0.217-0.875-0.149-1.19,0.167l-1.4,1.4C3.166,5.195,3.097,5.682,3.314,6.071l1.03,1.856
			c0.08,0.145,0.081,0.321,0.001,0.467c-0.296,0.556-0.537,1.139-0.719,1.742c-0.046,0.16-0.171,0.285-0.331,0.331l-2.051,0.588
			c-0.428,0.123-0.723,0.515-0.723,0.96v1.97c0,0.445,0.295,0.837,0.724,0.96l2.051,0.588c0.16,0.046,0.285,0.171,0.332,0.331
			c0.183,0.603,0.423,1.187,0.719,1.743c0.079,0.146,0.078,0.321-0.001,0.466l-1.03,1.855c-0.216,0.39-0.148,0.875,0.167,1.19
			l1.399,1.399c0.315,0.315,0.801,0.383,1.19,0.167l1.856-1.029c0.071-0.04,0.151-0.06,0.232-0.06c0.082,0,0.162,0.021,0.234,0.059
			c0.556,0.295,1.14,0.536,1.742,0.719c0.16,0.047,0.284,0.172,0.331,0.332l0.588,2.051c0.123,0.428,0.514,0.723,0.959,0.723h1.97
			c0.445,0,0.837-0.295,0.959-0.724l0.588-2.051c0.047-0.159,0.171-0.284,0.331-0.331c0.603-0.183,1.187-0.423,1.743-0.719
			c0.072-0.039,0.153-0.059,0.234-0.059c0.082,0,0.161,0.021,0.232,0.06l1.856,1.03c0.39,0.216,0.875,0.148,1.19-0.167l1.4-1.4
			c0.315-0.315,0.383-0.8,0.167-1.19l-1.03-1.857c-0.08-0.145-0.081-0.321-0.001-0.467c0.295-0.556,0.536-1.14,0.719-1.743
			c0.047-0.159,0.172-0.284,0.332-0.331l2.051-0.587c0.428-0.123,0.723-0.514,0.723-0.959v-1.97
			C25.48,11.57,25.185,11.178,24.757,11.055z M24.481,13.985l-2.051,0.588c-0.485,0.139-0.867,0.516-1.011,1
			c-0.164,0.541-0.38,1.065-0.645,1.564c-0.239,0.444-0.235,0.979,0.009,1.42l1.03,1.856l-1.399,1.399l-1.856-1.03
			c-0.219-0.122-0.466-0.185-0.717-0.186c-0.245,0.001-0.487,0.061-0.704,0.176c-0.499,0.265-1.023,0.481-1.564,0.645
			c-0.484,0.145-0.861,0.526-1,1.012l-0.588,2.051h-1.97l-0.588-2.052c-0.14-0.485-0.517-0.867-1-1.012
			c-0.541-0.164-1.064-0.379-1.564-0.645c-0.216-0.115-0.458-0.175-0.703-0.176c-0.251,0-0.498,0.064-0.717,0.186l-1.856,1.03
			l-1.399-1.399l1.03-1.856c0.244-0.44,0.248-0.974,0.01-1.418c-0.265-0.5-0.481-1.023-0.645-1.565
			c-0.144-0.484-0.525-0.862-1.011-1.001l-2.052-0.588v-1.97l2.051-0.588c0.486-0.139,0.867-0.516,1.012-1
			c0.164-0.541,0.38-1.064,0.645-1.563C5.465,8.42,5.462,7.885,5.217,7.443l-1.03-1.857l1.4-1.399l1.856,1.03
			C7.662,5.338,7.909,5.402,8.16,5.402c0.245,0,0.487-0.061,0.703-0.176c0.499-0.265,1.023-0.481,1.563-0.645
			c0.484-0.145,0.861-0.526,1.001-1.011l0.588-2.051h1.97l0.588,2.051c0.139,0.485,0.516,0.866,1,1.011
			c0.541,0.164,1.065,0.38,1.564,0.645c0.217,0.116,0.458,0.176,0.704,0.177c0.25,0,0.497-0.063,0.716-0.185l1.857-1.03l1.399,1.4
			l-1.03,1.855c-0.244,0.44-0.248,0.975-0.01,1.419c0.265,0.5,0.481,1.023,0.645,1.564c0.145,0.484,0.526,0.862,1.012,1.001
			l2.051,0.588V13.985z"/>
		<path id="Shape_10_" fill="#4E5C6E" d="M13,7.509c-3.033,0-5.491,2.458-5.491,5.491S9.967,18.491,13,18.491
			s5.491-2.458,5.491-5.491C18.488,9.969,16.031,7.512,13,7.509z M13,17.493c-2.481,0-4.493-2.011-4.493-4.493
			S10.519,8.507,13,8.507s4.493,2.011,4.493,4.493c0,1.191-0.473,2.334-1.316,3.177C15.334,17.02,14.191,17.493,13,17.493z"/>
	</g>
	<g id="Icon_x2F_exit-26-basic700" transform="translate(113.000000, 1.000000)">
		<rect id="ico-zone_7_" fill="#D8D8D8" fill-opacity="0" width="26" height="26"/>
		<path id="Shape_11_" fill="#4E5C6E" d="M19.246,5.171c2.367,1.982,3.734,4.948,3.734,8.114c0,5.744-4.469,10.4-9.98,10.4
			c-5.512,0-9.98-4.656-9.98-10.4c0-3.166,1.367-6.131,3.733-8.112C7.001,4.965,7.041,4.59,6.842,4.332
			C6.641,4.072,6.274,4.03,6.024,4.24C3.385,6.448,1.86,9.756,1.86,13.285c0,6.407,4.987,11.6,11.14,11.6
			c6.152,0,11.141-5.194,11.141-11.6c0-3.529-1.525-6.837-4.165-9.046c-0.251-0.209-0.618-0.168-0.818,0.092
			C18.959,4.588,18.998,4.963,19.246,5.171z"/>
		<path id="Shape_12_" fill="#4E5C6E" d="M12.42,1.479v10.833c0,0.32,0.26,0.58,0.58,0.58s0.58-0.26,0.58-0.58V1.479
			c0-0.32-0.26-0.58-0.58-0.58S12.42,1.16,12.42,1.479z"/>
	</g>
	<g id="login-26-basic-700" transform="translate(113.000000, 29.000000)">
		<g>
			<polygon id="Shape_13_" fill="none" points="0,0 26,0 26,26 0,26 			"/>
			<g id="Group" transform="translate(0.000000, 1.000000)">
				<path id="Shape_14_" fill="#4E5C6E" d="M5.176,5.749c1.982-2.367,4.948-3.733,8.114-3.733c5.744,0,10.399,4.467,10.399,9.979
					c0,5.512-4.655,9.979-10.399,9.979c-3.166,0-6.131-1.367-8.112-3.733c-0.212-0.248-0.582-0.286-0.84-0.089
					c-0.125,0.094-0.205,0.234-0.222,0.39s0.029,0.31,0.129,0.429c2.208,2.639,5.516,4.164,9.045,4.164
					c6.407,0,11.601-4.988,11.601-11.14c0-6.153-5.195-11.14-11.601-11.14c-3.529,0-6.837,1.524-9.046,4.164
					c-0.101,0.119-0.147,0.273-0.13,0.428c0.017,0.155,0.098,0.296,0.222,0.39C4.593,6.037,4.969,5.997,5.176,5.749z"/>
				<path id="Shape_15_" fill="#4E5C6E" d="M14.46,12.174c-0.011,0.061-0.038,0.116-0.077,0.163l-3.536,3.536
					c-0.113,0.113-0.537,0.17-0.763-0.057c-0.227-0.227-0.17-0.65-0.057-0.764l2.484-2.484H1.177c-0.374,0-0.677-0.26-0.677-0.579
					c0-0.32,0.303-0.58,0.677-0.58h11.336l-2.491-2.491c-0.113-0.113-0.167-0.534,0.059-0.761c0.227-0.226,0.648-0.173,0.761-0.06
					l3.45,3.449c0.022,0.02,0.042,0.039,0.062,0.063l0.024,0.023c0.03,0.031,0.058,0.085,0.075,0.151
					C14.508,11.908,14.511,12.049,14.46,12.174L14.46,12.174z"/>
			</g>
		</g>
	</g>
	<g id="Icon_x2F_assets-26-info500" transform="translate(141.000000, 1.000000)">
		<rect id="ico-zone_8_" fill="#D8D8D8" fill-opacity="0" width="26" height="26"/>
		<path id="Shape_16_" fill="#7995B9" d="M24,6.5h-0.5v13c0,0.552-0.447,1-1,1h-19V21c0.001,0.828,0.672,1.499,1.5,1.5h19
			c0.828-0.001,1.499-0.672,1.5-1.5V8C25.499,7.172,24.828,6.501,24,6.5z"/>
		<path id="Shape_17_" fill="#7995B9" d="M22.5,18V5c-0.001-0.828-0.672-1.499-1.5-1.5H2C1.172,3.501,0.501,4.172,0.5,5v13
			c0.001,0.828,0.672,1.499,1.5,1.5h19C21.828,19.499,22.499,18.828,22.5,18z M5,17.5H3c-0.276,0-0.5-0.224-0.5-0.5
			s0.224-0.5,0.5-0.5h2c0.276,0,0.5,0.224,0.5,0.5S5.276,17.5,5,17.5z M11.5,15.5c-1.654,0-3-1.794-3-4s1.346-4,3-4s3,1.794,3,4
			S13.154,15.5,11.5,15.5z M20,6.5h-2c-0.276,0-0.5-0.224-0.5-0.5s0.224-0.5,0.5-0.5h2c0.276,0,0.5,0.224,0.5,0.5S20.276,6.5,20,6.5
			z"/>
	</g>
	<g id="Icon_x2F_assets-26-submit400" transform="translate(141.000000, 29.000000)">
		<rect id="ico-zone_9_" fill="#D8D8D8" fill-opacity="0" width="26" height="26"/>
		<path id="Shape_18_" fill="#36A9E0" d="M24,6.5h-0.5v13c0,0.553-0.447,1-1,1h-19V21c0.001,0.828,0.672,1.499,1.5,1.5h19
			c0.828-0.001,1.499-0.672,1.5-1.5V8C25.499,7.172,24.828,6.501,24,6.5z"/>
		<path id="Shape_19_" fill="#36A9E0" d="M22.5,18V5c-0.001-0.828-0.672-1.499-1.5-1.5H2C1.172,3.501,0.501,4.172,0.5,5v13
			c0.001,0.828,0.672,1.499,1.5,1.5h19C21.828,19.499,22.499,18.828,22.5,18z M5,17.5H3c-0.276,0-0.5-0.224-0.5-0.5
			s0.224-0.5,0.5-0.5h2c0.276,0,0.5,0.224,0.5,0.5S5.276,17.5,5,17.5z M11.5,15.5c-1.654,0-3-1.795-3-4s1.346-4,3-4s3,1.795,3,4
			S13.154,15.5,11.5,15.5z M20,6.5h-2c-0.276,0-0.5-0.224-0.5-0.5s0.224-0.5,0.5-0.5h2c0.276,0,0.5,0.224,0.5,0.5S20.276,6.5,20,6.5
			z"/>
	</g>
	<g id="Icon_x2F_transaction-26-info500" transform="translate(169.000000, 1.000000)">
		<rect id="ico-zone_10_" fill="#D8D8D8" fill-opacity="0" width="26" height="26"/>
		<path id="Shape_20_" fill="#7995B9" d="M2,13c0,6.075,4.925,11,11,11s11-4.925,11-11S19.075,2,13,2
			c-2.918,0-5.715,1.159-7.778,3.222C3.158,7.285,2,10.083,2,13z M16.08,8.36v8.618l1.889-1.889c0.111-0.114,0.274-0.16,0.428-0.12
			c0.154,0.041,0.274,0.161,0.314,0.314c0.041,0.154-0.006,0.317-0.119,0.428l-2.641,2.64c-0.172,0.172-0.45,0.172-0.622,0
			l-2.64-2.64c-0.168-0.172-0.165-0.447,0.005-0.617c0.169-0.169,0.444-0.172,0.616-0.005l1.89,1.889V8.36
			c0-0.243,0.196-0.44,0.44-0.44C15.883,7.92,16.08,8.117,16.08,8.36z M10.671,7.649l2.64,2.64c0.168,0.172,0.165,0.447-0.005,0.617
			c-0.169,0.169-0.444,0.172-0.616,0.005L10.8,9.022v8.618c0,0.243-0.196,0.44-0.44,0.44c-0.242,0-0.439-0.197-0.439-0.44V9.022
			l-1.889,1.889c-0.173,0.167-0.447,0.164-0.617-0.005c-0.17-0.17-0.172-0.444-0.006-0.617l2.641-2.64
			C10.221,7.477,10.499,7.477,10.671,7.649z"/>
	</g>
	<g id="Icon_x2F_transaction-26-submit400" transform="translate(169.000000, 29.000000)">
		<rect id="ico-zone_11_" fill="#D8D8D8" fill-opacity="0" width="26" height="26"/>
		<path id="Shape_21_" fill="#36A9E0" d="M2,13c0,6.075,4.925,11,11,11s11-4.925,11-11S19.075,2,13,2
			c-2.918,0-5.715,1.159-7.778,3.222C3.158,7.285,2,10.082,2,13z M16.08,8.359v8.619l1.889-1.89c0.111-0.114,0.274-0.16,0.428-0.12
			c0.154,0.041,0.274,0.16,0.314,0.314c0.041,0.154-0.006,0.317-0.119,0.428l-2.641,2.641c-0.172,0.172-0.45,0.172-0.622,0
			l-2.64-2.641c-0.168-0.172-0.165-0.447,0.005-0.617c0.169-0.169,0.444-0.172,0.616-0.005l1.89,1.89V8.359
			c0-0.242,0.196-0.439,0.44-0.439C15.883,7.92,16.08,8.117,16.08,8.359z M10.671,7.648l2.64,2.641
			c0.168,0.172,0.165,0.447-0.005,0.617c-0.169,0.169-0.444,0.172-0.616,0.005l-1.89-1.89v8.619c0,0.242-0.196,0.439-0.44,0.439
			c-0.242,0-0.439-0.197-0.439-0.439V9.021l-1.889,1.89c-0.173,0.167-0.447,0.164-0.617-0.005c-0.17-0.17-0.172-0.445-0.006-0.617
			l2.641-2.641C10.221,7.477,10.499,7.477,10.671,7.648z"/>
	</g>
	<g id="Icon_x2F_portfolio-26-info500" transform="translate(197.000000, 1.000000)">
		<rect id="ico-zone_12_" fill="#D8D8D8" fill-opacity="0" width="26" height="26"/>
		<path id="portfolio" fill="#7995B9" d="M22.68,6.479h-4.84V5.174c-0.002-1.2-0.985-2.172-2.199-2.174h-5.281
			C9.146,3.001,8.162,3.974,8.16,5.174v1.305H3.32c-0.729,0-1.319,0.584-1.32,1.304v13.913c0.001,0.72,0.592,1.303,1.32,1.304H22.68
			c0.729-0.001,1.319-0.584,1.32-1.304V7.783C23.999,7.063,23.408,6.479,22.68,6.479z M9.04,5.174
			c0.001-0.72,0.591-1.304,1.319-1.304h5.281c0.729,0,1.318,0.584,1.319,1.304v1.305H9.04V5.174z M20.04,18.652H5.96
			c-0.243,0-0.44-0.195-0.44-0.435c0-0.24,0.197-0.435,0.44-0.435h14.08c0.243,0,0.44,0.195,0.44,0.435
			C20.48,18.458,20.283,18.652,20.04,18.652z M20.04,15.174H5.96c-0.243,0-0.44-0.194-0.44-0.435s0.197-0.435,0.44-0.435h14.08
			c0.243,0,0.44,0.195,0.44,0.435S20.283,15.174,20.04,15.174z M20.04,11.696H5.96c-0.243,0-0.44-0.195-0.44-0.435
			s0.197-0.435,0.44-0.435h14.08c0.243,0,0.44,0.194,0.44,0.435S20.283,11.696,20.04,11.696z"/>
	</g>
	<g id="Icon_x2F_portfolio-26-submit400" transform="translate(197.000000, 29.000000)">
		<rect id="ico-zone_13_" fill="#D8D8D8" fill-opacity="0" width="26" height="26"/>
		<path id="portfolio_1_" fill="#36A9E0" d="M22.68,6.479h-4.84V5.174c-0.002-1.2-0.985-2.172-2.199-2.174h-5.281
			C9.146,3.002,8.162,3.974,8.16,5.174v1.305H3.32c-0.729,0-1.319,0.584-1.32,1.305v13.912C2.001,22.416,2.592,22.999,3.32,23H22.68
			c0.729-0.001,1.319-0.584,1.32-1.305V7.783C23.999,7.063,23.408,6.479,22.68,6.479z M9.04,5.174
			c0.001-0.72,0.591-1.304,1.319-1.305h5.281c0.729,0.001,1.318,0.585,1.319,1.305v1.305H9.04V5.174z M20.04,18.652H5.96
			c-0.243,0-0.44-0.195-0.44-0.436c0-0.239,0.197-0.434,0.44-0.434h14.08c0.243,0,0.44,0.194,0.44,0.434
			C20.48,18.457,20.283,18.652,20.04,18.652z M20.04,15.174H5.96c-0.243,0-0.44-0.194-0.44-0.435s0.197-0.435,0.44-0.435h14.08
			c0.243,0,0.44,0.194,0.44,0.435S20.283,15.174,20.04,15.174z M20.04,11.695H5.96c-0.243,0-0.44-0.194-0.44-0.435
			s0.197-0.435,0.44-0.435h14.08c0.243,0,0.44,0.194,0.44,0.435S20.283,11.695,20.04,11.695z"/>
	</g>
	<g id="Icon_x2F_leasing-26-info500" transform="translate(225.000000, 1.000000)">
		<rect id="ico-zone_14_" fill="#D8D8D8" fill-opacity="0" width="26" height="26"/>
		<path id="Shape_22_" fill="#7995B9" d="M24.5,11h-23C1.2,11,1,11.2,1,11.5v7C1,19.9,2.1,21,3.5,21h19c1.4,0,2.5-1.1,2.5-2.5v-7
			C25,11.2,24.8,11,24.5,11z M4.5,15h4C8.8,15,9,15.2,9,15.5S8.8,16,8.5,16h-4C4.2,16,4,15.8,4,15.5S4.2,15,4.5,15z M11.5,18h-7
			C4.2,18,4,17.8,4,17.5S4.2,17,4.5,17h7c0.3,0,0.5,0.2,0.5,0.5S11.8,18,11.5,18z M20,18c-0.4,0-0.7-0.1-1-0.3
			c-0.3,0.2-0.6,0.3-1,0.3c-1.1,0-2-0.9-2-2s0.9-2,2-2c0.4,0,0.7,0.1,1,0.3c0.3-0.2,0.6-0.3,1-0.3c1.1,0,2,0.9,2,2S21.1,18,20,18z"
			/>
		<path id="Shape_23_" fill="#7995B9" d="M22.5,5h-19C2.1,5,1,6.1,1,7.5v1C1,8.8,1.2,9,1.5,9h23C24.8,9,25,8.8,25,8.5v-1
			C25,6.1,23.9,5,22.5,5z"/>
	</g>
	<g id="Icon_x2F_leasing-26-submit400" transform="translate(225.000000, 29.000000)">
		<rect id="ico-zone_15_" fill="#D8D8D8" fill-opacity="0" width="26" height="26"/>
		<path id="Shape_24_" fill="#36A9E0" d="M24.5,11h-23C1.2,11,1,11.2,1,11.5v7C1,19.9,2.1,21,3.5,21h19c1.4,0,2.5-1.1,2.5-2.5v-7
			C25,11.2,24.8,11,24.5,11z M4.5,15h4C8.8,15,9,15.2,9,15.5S8.8,16,8.5,16h-4C4.2,16,4,15.8,4,15.5S4.2,15,4.5,15z M11.5,18h-7
			C4.2,18,4,17.8,4,17.5S4.2,17,4.5,17h7c0.3,0,0.5,0.2,0.5,0.5S11.8,18,11.5,18z M20,18c-0.4,0-0.7-0.1-1-0.3
			c-0.3,0.2-0.6,0.3-1,0.3c-1.1,0-2-0.9-2-2s0.9-2,2-2c0.4,0,0.7,0.1,1,0.3c0.3-0.2,0.6-0.3,1-0.3c1.1,0,2,0.9,2,2S21.1,18,20,18z"
			/>
		<path id="Shape_25_" fill="#36A9E0" d="M22.5,5h-19C2.1,5,1,6.1,1,7.5v1C1,8.8,1.2,9,1.5,9h23C24.8,9,25,8.8,25,8.5v-1
			C25,6.1,23.9,5,22.5,5z"/>
	</g>
</g>
</svg>
